M48
; DRILL file {KiCad 8.0.4} date 2024-12-04T20:03:35-0600
; FORMAT={-:-/ absolute / inch / decimal}
; #@! TF.CreationDate,2024-12-04T20:03:35-06:00
; #@! TF.GenerationSoftware,Kicad,Pcbnew,8.0.4
; #@! TF.FileFunction,Plated,1,2,PTH
FMAT,2
INCH
; #@! TA.AperFunction,Plated,PTH,ViaDrill
T1C0.0118
; #@! TA.AperFunction,Plated,PTH,ViaDrill
T2C0.0157
; #@! TA.AperFunction,Plated,PTH,ComponentDrill
T3C0.0295
; #@! TA.AperFunction,Plated,PTH,ComponentDrill
T4C0.0315
; #@! TA.AperFunction,Plated,PTH,ComponentDrill
T5C0.0394
%
G90
G05
T1
X4.7736Y-4.0059
X4.7933Y-3.8976
X4.8819Y-4.2224
X5.1673Y-3.4744
X5.4035Y-3.6713
X5.4577Y-4.4734
X5.5413Y-4.4193
X5.5512Y-3.7008
X5.5807Y-4.5571
X5.6398Y-3.376
X5.6594Y-4.5669
X5.6693Y-3.8673
X5.8169Y-3.5433
X5.8268Y-4.6161
X5.8661Y-3.7374
X5.876Y-3.9953
X5.8858Y-3.9173
X5.9154Y-3.4154
X5.9449Y-4.0059
X5.9547Y-2.5295
X5.9547Y-3.4154
X5.9862Y-2.5295
X6.002Y-3.8877
X6.122Y-3.6417
X6.1516Y-3.9567
X6.2126Y-3.6929
X6.2303Y-3.7402
X6.25Y-3.7795
X6.2648Y-3.7156
X6.2894Y-3.7594
X6.4508Y-3.7205
X6.5453Y-3.7205
X6.6732Y-3.9075
T2
X6.3583Y-4.8327
T3
X5.8732Y-2.4185
X6.1016Y-2.4185
T5
X5.0071Y-4.1724
X5.0071Y-4.2724
X5.1071Y-4.1724
X5.1071Y-4.2724
X5.2071Y-4.1724
X5.2071Y-4.2724
X5.3071Y-4.1724
X5.3071Y-4.2724
X5.3126Y-2.9331
X5.4071Y-4.1724
X5.4071Y-4.2724
X5.5071Y-4.1724
X5.5071Y-4.2724
X5.6071Y-4.1724
X5.6071Y-4.2724
X5.6126Y-2.9331
X5.7071Y-4.1724
X5.7071Y-4.2724
X5.8071Y-4.1724
X5.8071Y-4.2724
X5.9071Y-4.1724
X5.9071Y-4.2724
X6.0071Y-4.1724
X6.0071Y-4.2724
X6.1071Y-4.1724
X6.1071Y-4.2724
X6.2071Y-4.1724
X6.2071Y-4.2724
X6.3071Y-4.1724
X6.3071Y-4.2724
X6.4071Y-4.1724
X6.4071Y-4.2724
X6.5071Y-4.1724
X6.5071Y-4.2724
X6.6071Y-4.1724
X6.6071Y-4.2724
X6.7071Y-4.1724
X6.7071Y-4.2724
X6.8071Y-4.1724
X6.8071Y-4.2724
X6.9071Y-4.1724
X6.9071Y-4.2724
T4
G00X5.8169Y-2.2854
M15
G01X5.8169Y-2.2618
M16
G05
G00X5.8169Y-2.4539
M15
G01X5.8169Y-2.4224
M16
G05
G00X6.1579Y-2.2854
M15
G01X6.1579Y-2.2618
M16
G05
G00X6.1579Y-2.4539
M15
G01X6.1579Y-2.4224
M16
G05
M30
