%TF.GenerationSoftware,KiCad,Pcbnew,8.0.4*%
%TF.CreationDate,2024-12-04T20:03:35-06:00*%
%TF.ProjectId,amoguspico,616d6f67-7573-4706-9963-6f2e6b696361,rev?*%
%TF.SameCoordinates,Original*%
%TF.FileFunction,Copper,L2,Bot*%
%TF.FilePolarity,Positive*%
%FSLAX46Y46*%
G04 Gerber Fmt 4.6, Leading zero omitted, Abs format (unit mm)*
G04 Created by KiCad (PCBNEW 8.0.4) date 2024-12-04 20:03:35*
%MOMM*%
%LPD*%
G01*
G04 APERTURE LIST*
%TA.AperFunction,ComponentPad*%
%ADD10C,1.800000*%
%TD*%
%TA.AperFunction,ComponentPad*%
%ADD11R,1.600000X1.600000*%
%TD*%
%TA.AperFunction,ComponentPad*%
%ADD12C,1.600000*%
%TD*%
%TA.AperFunction,ComponentPad*%
%ADD13C,0.750000*%
%TD*%
%TA.AperFunction,ComponentPad*%
%ADD14O,1.200000X2.000000*%
%TD*%
%TA.AperFunction,ComponentPad*%
%ADD15O,1.200000X1.800000*%
%TD*%
%TA.AperFunction,ViaPad*%
%ADD16C,0.600000*%
%TD*%
%TA.AperFunction,ViaPad*%
%ADD17C,0.800000*%
%TD*%
%TA.AperFunction,Conductor*%
%ADD18C,0.200000*%
%TD*%
G04 APERTURE END LIST*
D10*
%TO.P,BUZZER1,1,1*%
%TO.N,GP5*%
X134940000Y-74500000D03*
%TO.P,BUZZER1,2,2*%
%TO.N,GND*%
X142560000Y-74500000D03*
%TD*%
D11*
%TO.P,U7,1,1*%
%TO.N,GND*%
X127180000Y-108520000D03*
D12*
%TO.P,U7,2,2*%
%TO.N,GP0*%
X127180000Y-105980000D03*
%TO.P,U7,3,3*%
%TO.N,GND*%
X129720000Y-108520000D03*
%TO.P,U7,4,4*%
%TO.N,GP1*%
X129720000Y-105980000D03*
%TO.P,U7,5,5*%
%TO.N,GND*%
X132260000Y-108520000D03*
%TO.P,U7,6,6*%
%TO.N,GP2*%
X132260000Y-105980000D03*
%TO.P,U7,7,7*%
%TO.N,GND*%
X134800000Y-108520000D03*
%TO.P,U7,8,8*%
%TO.N,GP3*%
X134800000Y-105980000D03*
%TO.P,U7,9,9*%
%TO.N,VBUS*%
X137340000Y-108520000D03*
%TO.P,U7,10,10*%
%TO.N,GP4*%
X137340000Y-105980000D03*
%TO.P,U7,11,11*%
%TO.N,VBUS*%
X139880000Y-108520000D03*
%TO.P,U7,12,12*%
%TO.N,GP5*%
X139880000Y-105980000D03*
%TO.P,U7,13,13*%
%TO.N,VBUS*%
X142420000Y-108520000D03*
%TO.P,U7,14,14*%
%TO.N,GP6*%
X142420000Y-105980000D03*
%TO.P,U7,15,15*%
%TO.N,+3V3*%
X144960000Y-108520000D03*
%TO.P,U7,16,16*%
%TO.N,GP7*%
X144960000Y-105980000D03*
%TO.P,U7,17,17*%
%TO.N,+3V3*%
X147500000Y-108520000D03*
%TO.P,U7,18,18*%
%TO.N,GP8*%
X147500000Y-105980000D03*
%TO.P,U7,19,19*%
%TO.N,+3V3*%
X150040000Y-108520000D03*
%TO.P,U7,20,20*%
%TO.N,GP9*%
X150040000Y-105980000D03*
%TO.P,U7,21,21*%
%TO.N,GP29*%
X152580000Y-108520000D03*
%TO.P,U7,22,22*%
%TO.N,GP10*%
X152580000Y-105980000D03*
%TO.P,U7,23,23*%
%TO.N,GP28*%
X155120000Y-108520000D03*
%TO.P,U7,24,24*%
%TO.N,GP11*%
X155120000Y-105980000D03*
%TO.P,U7,25,25*%
%TO.N,GP27*%
X157660000Y-108520000D03*
%TO.P,U7,26,26*%
%TO.N,GP12*%
X157660000Y-105980000D03*
%TO.P,U7,27,27*%
%TO.N,GP26*%
X160200000Y-108520000D03*
%TO.P,U7,28,28*%
%TO.N,GP13*%
X160200000Y-105980000D03*
%TO.P,U7,29,29*%
%TO.N,GP25*%
X162740000Y-108520000D03*
%TO.P,U7,30,30*%
%TO.N,GP14*%
X162740000Y-105980000D03*
%TO.P,U7,31,31*%
%TO.N,GP24*%
X165280000Y-108520000D03*
%TO.P,U7,32,32*%
%TO.N,GP15*%
X165280000Y-105980000D03*
%TO.P,U7,33,33*%
%TO.N,GP23*%
X167820000Y-108520000D03*
%TO.P,U7,34,34*%
%TO.N,GP16*%
X167820000Y-105980000D03*
%TO.P,U7,35,35*%
%TO.N,GP22*%
X170360000Y-108520000D03*
%TO.P,U7,36,36*%
%TO.N,GP17*%
X170360000Y-105980000D03*
%TO.P,U7,37,37*%
%TO.N,GP21*%
X172900000Y-108520000D03*
%TO.P,U7,38,38*%
%TO.N,GP18*%
X172900000Y-105980000D03*
%TO.P,U7,39,39*%
%TO.N,GP20*%
X175440000Y-108520000D03*
%TO.P,U7,40,40*%
%TO.N,GP19*%
X175440000Y-105980000D03*
%TD*%
D13*
%TO.P,USBC1,*%
%TO.N,*%
X154980000Y-61430000D03*
X149180000Y-61430000D03*
D14*
%TO.P,USBC1,0,SH*%
%TO.N,GND*%
X156410000Y-61930000D03*
%TO.P,USBC1,1*%
%TO.N,N/C*%
X147750000Y-61930000D03*
D15*
%TO.P,USBC1,2*%
X147750000Y-57750000D03*
%TO.P,USBC1,3*%
X156410000Y-57750000D03*
%TD*%
D16*
%TO.N,+3V3*%
X147750000Y-90000000D03*
%TO.N,D-*%
X151250000Y-86750000D03*
%TO.N,D+*%
X150250000Y-86750000D03*
%TO.N,GND*%
X159125000Y-94375000D03*
X156250000Y-100500000D03*
X121750000Y-99000000D03*
X138625000Y-113625000D03*
X124000000Y-107250000D03*
X137250000Y-93250000D03*
X149000000Y-94929998D03*
X121250000Y-101750000D03*
D17*
X161500000Y-122750000D03*
D16*
X141750000Y-115750000D03*
X148000000Y-117250000D03*
%TO.N,+3V3*%
X155500000Y-92500000D03*
X143250000Y-85750000D03*
X152450774Y-98747257D03*
X169500000Y-99250000D03*
X144000000Y-98230000D03*
X151000000Y-101750000D03*
X131250000Y-88250000D03*
X141000000Y-94000000D03*
%TO.N,D-*%
X152050003Y-64250000D03*
%TO.N,D+*%
X151250000Y-64250000D03*
%TO.N,GP16*%
X166250000Y-94500000D03*
%TO.N,GP29*%
X157799265Y-93799265D03*
%TO.N,Net-(U5-XIN)*%
X163850000Y-94500000D03*
X149250000Y-101480000D03*
%TO.N,GP28*%
X158250000Y-95000000D03*
%TO.N,GP27*%
X158750000Y-96000000D03*
%TO.N,Net-(U5-XOUT)*%
X159750000Y-95490000D03*
X149500000Y-99500000D03*
%TO.N,Net-(U4-VIN)*%
X140750000Y-112250000D03*
X143750000Y-116000000D03*
%TD*%
D18*
%TO.N,Net-(U5-XIN)*%
X149250000Y-101480000D02*
X148900000Y-101130000D01*
X148900000Y-98251471D02*
X155251471Y-91900000D01*
X155251471Y-91900000D02*
X161250000Y-91900000D01*
X148900000Y-101130000D02*
X148900000Y-98251471D01*
X161250000Y-91900000D02*
X163850000Y-94500000D01*
%TO.N,Net-(U5-XOUT)*%
X149500000Y-99500000D02*
X149750000Y-99500000D01*
X149750000Y-99500000D02*
X156050735Y-93199265D01*
X156050735Y-93199265D02*
X158797794Y-93199265D01*
X159750000Y-94151471D02*
X159750000Y-95490000D01*
X158797794Y-93199265D02*
X159750000Y-94151471D01*
%TO.N,D+*%
X150250000Y-86750000D02*
X150250000Y-86431801D01*
X150250000Y-86431801D02*
X151425001Y-85256800D01*
X151425001Y-85256800D02*
X151425001Y-64425001D01*
X151425001Y-64425001D02*
X151250000Y-64250000D01*
%TO.N,D-*%
X151250000Y-86750000D02*
X151250000Y-86068199D01*
X151875002Y-85443197D02*
X151875002Y-64425001D01*
X151250000Y-86068199D02*
X151875002Y-85443197D01*
X151875002Y-64425001D02*
X152050003Y-64250000D01*
%TO.N,GND*%
X159125000Y-94375000D02*
X159100000Y-94400000D01*
X159100000Y-94400000D02*
X158001471Y-94400000D01*
X158001471Y-94400000D02*
X156250000Y-96151471D01*
X156250000Y-96151471D02*
X156250000Y-100500000D01*
%TO.N,GP29*%
X157799265Y-93799265D02*
X157799265Y-93950735D01*
X154020000Y-107080000D02*
X152580000Y-108520000D01*
X157799265Y-93950735D02*
X154020000Y-97730000D01*
X154020000Y-97730000D02*
X154020000Y-107080000D01*
%TO.N,GP28*%
X155120000Y-108520000D02*
X156882183Y-106757817D01*
X156560000Y-105524365D02*
X157204365Y-104880000D01*
X157204365Y-104880000D02*
X157250000Y-104880000D01*
X156560000Y-106435635D02*
X156560000Y-105524365D01*
X156882183Y-106757817D02*
X156560000Y-106435635D01*
X157250000Y-104880000D02*
X157250000Y-96000000D01*
X157250000Y-96000000D02*
X158250000Y-95000000D01*
%TO.N,GND*%
X153500000Y-122750000D02*
X161500000Y-122750000D01*
X121750000Y-101250000D02*
X121250000Y-101750000D01*
X138625000Y-113625000D02*
X138625000Y-115723529D01*
X139501471Y-116600000D02*
X140900000Y-116600000D01*
X124000000Y-107250000D02*
X124000000Y-106500000D01*
X147320002Y-93250000D02*
X137250000Y-93250000D01*
X138625000Y-115723529D02*
X139501471Y-116600000D01*
X121750000Y-99000000D02*
X121750000Y-101250000D01*
X124000000Y-106500000D02*
X137250000Y-93250000D01*
X148000000Y-117250000D02*
X153500000Y-122750000D01*
X140900000Y-116600000D02*
X141750000Y-115750000D01*
X149000000Y-94929998D02*
X147320002Y-93250000D01*
%TO.N,GP5*%
X118782500Y-91217500D02*
X119032500Y-91217500D01*
X118782500Y-107532500D02*
X120250000Y-109000000D01*
X138610000Y-107250000D02*
X139880000Y-105980000D01*
X118782500Y-91217500D02*
X118782500Y-107532500D01*
X124500000Y-109000000D02*
X126250000Y-107250000D01*
X119032500Y-91217500D02*
X134625000Y-75625000D01*
X134625000Y-75625000D02*
X134625000Y-74815000D01*
X134625000Y-75625000D02*
X135500000Y-74750000D01*
X120250000Y-109000000D02*
X124500000Y-109000000D01*
X126250000Y-107250000D02*
X138610000Y-107250000D01*
%TO.N,+3V3*%
X144000000Y-97000000D02*
X141000000Y-94000000D01*
X144000000Y-98230000D02*
X144000000Y-97000000D01*
%TO.N,D-*%
X152050003Y-64413606D02*
X152050003Y-64250000D01*
%TO.N,GP16*%
X167820000Y-105980000D02*
X167820000Y-96070000D01*
X167820000Y-96070000D02*
X166250000Y-94500000D01*
%TO.N,Net-(U5-XIN)*%
X164000000Y-94350000D02*
X163850000Y-94500000D01*
%TO.N,Net-(U4-VIN)*%
X143750000Y-115250000D02*
X143750000Y-116000000D01*
X140750000Y-112250000D02*
X143750000Y-115250000D01*
%TO.N,GP27*%
X158750000Y-96000000D02*
X158760000Y-96010000D01*
X158760000Y-96010000D02*
X158760000Y-107420000D01*
X158760000Y-107420000D02*
X157660000Y-108520000D01*
%TD*%
%TA.AperFunction,Conductor*%
%TO.N,+3V3*%
G36*
X155568834Y-97132915D02*
G01*
X155624767Y-97174787D01*
X155649184Y-97240251D01*
X155649500Y-97249097D01*
X155649500Y-99917587D01*
X155629815Y-99984626D01*
X155622450Y-99994896D01*
X155620186Y-99997734D01*
X155524211Y-100150476D01*
X155464631Y-100320745D01*
X155464630Y-100320750D01*
X155444435Y-100499996D01*
X155444435Y-100500003D01*
X155464630Y-100679249D01*
X155464631Y-100679254D01*
X155524211Y-100849523D01*
X155620184Y-101002262D01*
X155747738Y-101129816D01*
X155900478Y-101225789D01*
X156070742Y-101285367D01*
X156070745Y-101285368D01*
X156070750Y-101285369D01*
X156249996Y-101305565D01*
X156250000Y-101305565D01*
X156250004Y-101305565D01*
X156429249Y-101285369D01*
X156429250Y-101285368D01*
X156429255Y-101285368D01*
X156484545Y-101266020D01*
X156554322Y-101262458D01*
X156614950Y-101297186D01*
X156647178Y-101359179D01*
X156649500Y-101383062D01*
X156649500Y-104534267D01*
X156629815Y-104601306D01*
X156613181Y-104621948D01*
X156194838Y-105040290D01*
X156133515Y-105073775D01*
X156063823Y-105068791D01*
X156019477Y-105040291D01*
X155959139Y-104979953D01*
X155959138Y-104979952D01*
X155959137Y-104979951D01*
X155772734Y-104849432D01*
X155772732Y-104849431D01*
X155566497Y-104753261D01*
X155566488Y-104753258D01*
X155346697Y-104694366D01*
X155346693Y-104694365D01*
X155346692Y-104694365D01*
X155346691Y-104694364D01*
X155346686Y-104694364D01*
X155120002Y-104674532D01*
X155119998Y-104674532D01*
X154893313Y-104694364D01*
X154893302Y-104694366D01*
X154776593Y-104725638D01*
X154706743Y-104723975D01*
X154648881Y-104684812D01*
X154621377Y-104620583D01*
X154620500Y-104605863D01*
X154620500Y-98030097D01*
X154640185Y-97963058D01*
X154656819Y-97942416D01*
X155437819Y-97161416D01*
X155499142Y-97127931D01*
X155568834Y-97132915D01*
G37*
%TD.AperFunction*%
%TA.AperFunction,Conductor*%
G36*
X155668189Y-92520185D02*
G01*
X155713944Y-92572989D01*
X155723888Y-92642147D01*
X155694863Y-92705703D01*
X155687452Y-92712684D01*
X155687766Y-92712998D01*
X155570213Y-92830551D01*
X149727660Y-98673103D01*
X149666337Y-98706588D01*
X149626096Y-98708642D01*
X149610617Y-98706898D01*
X149546203Y-98679832D01*
X149506648Y-98622237D01*
X149500500Y-98583678D01*
X149500500Y-98551568D01*
X149520185Y-98484529D01*
X149536819Y-98463887D01*
X155463887Y-92536819D01*
X155525210Y-92503334D01*
X155551568Y-92500500D01*
X155601150Y-92500500D01*
X155668189Y-92520185D01*
G37*
%TD.AperFunction*%
%TA.AperFunction,Conductor*%
G36*
X147141683Y-56322794D02*
G01*
X147187438Y-56375598D01*
X147197382Y-56444756D01*
X147168357Y-56508312D01*
X147147530Y-56527427D01*
X147033070Y-56610587D01*
X146910588Y-56733069D01*
X146910588Y-56733070D01*
X146910586Y-56733072D01*
X146888892Y-56762931D01*
X146808768Y-56873211D01*
X146730128Y-57027552D01*
X146676597Y-57192302D01*
X146649500Y-57363389D01*
X146649500Y-58136610D01*
X146674398Y-58293814D01*
X146676598Y-58307701D01*
X146730127Y-58472445D01*
X146808768Y-58626788D01*
X146910586Y-58766928D01*
X147033072Y-58889414D01*
X147173212Y-58991232D01*
X147327555Y-59069873D01*
X147492299Y-59123402D01*
X147663389Y-59150500D01*
X147663390Y-59150500D01*
X147836610Y-59150500D01*
X147836611Y-59150500D01*
X148007701Y-59123402D01*
X148172445Y-59069873D01*
X148326788Y-58991232D01*
X148466928Y-58889414D01*
X148589414Y-58766928D01*
X148691232Y-58626788D01*
X148769873Y-58472445D01*
X148823402Y-58307701D01*
X148850500Y-58136611D01*
X148850500Y-57363389D01*
X148823402Y-57192299D01*
X148769873Y-57027555D01*
X148691232Y-56873212D01*
X148589414Y-56733072D01*
X148466928Y-56610586D01*
X148352470Y-56527427D01*
X148309805Y-56472096D01*
X148303826Y-56402483D01*
X148336432Y-56340688D01*
X148397271Y-56306331D01*
X148425356Y-56303109D01*
X152404881Y-56303109D01*
X152415179Y-56303537D01*
X155465243Y-56557707D01*
X155530414Y-56582890D01*
X155571626Y-56639311D01*
X155575791Y-56709057D01*
X155555261Y-56754163D01*
X155468770Y-56873207D01*
X155390128Y-57027552D01*
X155336597Y-57192302D01*
X155309500Y-57363389D01*
X155309500Y-58136610D01*
X155334398Y-58293814D01*
X155336598Y-58307701D01*
X155390127Y-58472445D01*
X155468768Y-58626788D01*
X155570586Y-58766928D01*
X155693072Y-58889414D01*
X155833212Y-58991232D01*
X155987555Y-59069873D01*
X156152299Y-59123402D01*
X156323389Y-59150500D01*
X156323390Y-59150500D01*
X156496610Y-59150500D01*
X156496611Y-59150500D01*
X156667701Y-59123402D01*
X156832445Y-59069873D01*
X156986788Y-58991232D01*
X157126928Y-58889414D01*
X157249414Y-58766928D01*
X157351232Y-58626788D01*
X157429873Y-58472445D01*
X157483402Y-58307701D01*
X157510500Y-58136611D01*
X157510500Y-57363389D01*
X157483402Y-57192299D01*
X157429873Y-57027555D01*
X157371627Y-56913241D01*
X157358732Y-56844572D01*
X157385009Y-56779832D01*
X157442115Y-56739575D01*
X157496328Y-56733765D01*
X157529776Y-56737626D01*
X157532307Y-56737945D01*
X157713473Y-56762754D01*
X157715981Y-56763124D01*
X157896688Y-56791779D01*
X157899176Y-56792201D01*
X158079214Y-56824672D01*
X158081660Y-56825140D01*
X158260990Y-56861420D01*
X158263462Y-56861947D01*
X158441957Y-56902011D01*
X158444498Y-56902610D01*
X158463265Y-56907241D01*
X158625444Y-56947267D01*
X158626453Y-56947521D01*
X163650074Y-58243974D01*
X163652311Y-58244574D01*
X163976831Y-58334962D01*
X163981373Y-58336322D01*
X164099962Y-58374302D01*
X164296078Y-58437113D01*
X164300526Y-58438632D01*
X164610960Y-58551322D01*
X164615326Y-58553003D01*
X164921073Y-58677417D01*
X164925403Y-58679277D01*
X165226132Y-58815264D01*
X165230410Y-58817297D01*
X165525888Y-58964759D01*
X165530050Y-58966937D01*
X165819907Y-59125709D01*
X165823998Y-59128053D01*
X166068608Y-59274469D01*
X166112963Y-59301018D01*
X166114979Y-59302250D01*
X169114541Y-61177025D01*
X169115488Y-61177623D01*
X169272058Y-61277808D01*
X169274161Y-61279186D01*
X169425738Y-61380747D01*
X169427800Y-61382161D01*
X169577135Y-61486850D01*
X169579140Y-61488287D01*
X169726064Y-61595975D01*
X169728154Y-61597541D01*
X169872728Y-61708264D01*
X169874786Y-61709875D01*
X170001227Y-61811008D01*
X170016937Y-61823573D01*
X170018939Y-61825210D01*
X170158618Y-61941839D01*
X170160536Y-61943474D01*
X170278598Y-62046353D01*
X170297763Y-62063053D01*
X170299649Y-62064731D01*
X170434361Y-62187206D01*
X170436178Y-62188894D01*
X170568205Y-62314110D01*
X170570079Y-62315925D01*
X170699511Y-62443974D01*
X170701236Y-62445716D01*
X170827980Y-62576511D01*
X170829742Y-62578368D01*
X170953710Y-62711825D01*
X170955458Y-62713748D01*
X171052332Y-62822560D01*
X171076582Y-62849799D01*
X171078306Y-62851777D01*
X171196635Y-62990491D01*
X171198296Y-62992479D01*
X171315920Y-63136430D01*
X171316619Y-63137295D01*
X171713537Y-63633436D01*
X174015321Y-66510628D01*
X174021453Y-66519321D01*
X174062453Y-66569552D01*
X174063217Y-66570497D01*
X174103740Y-66621150D01*
X174110931Y-66628944D01*
X174130746Y-66653220D01*
X174138887Y-66664415D01*
X174140844Y-66667450D01*
X174179628Y-66713143D01*
X174181110Y-66714924D01*
X174218993Y-66761335D01*
X174218995Y-66761337D01*
X174221622Y-66763811D01*
X174231147Y-66773840D01*
X174251315Y-66797601D01*
X174259664Y-66808631D01*
X174261674Y-66811620D01*
X174301304Y-66856532D01*
X174302863Y-66858333D01*
X174341616Y-66903990D01*
X174344283Y-66906406D01*
X174354008Y-66916260D01*
X174374555Y-66939546D01*
X174383115Y-66950413D01*
X174385189Y-66953372D01*
X174425682Y-66997522D01*
X174427251Y-66999265D01*
X174466889Y-67044186D01*
X174466891Y-67044188D01*
X174469598Y-67046547D01*
X174479510Y-67056210D01*
X174500453Y-67079044D01*
X174509223Y-67089749D01*
X174511342Y-67092652D01*
X174511343Y-67092654D01*
X174511345Y-67092656D01*
X174552740Y-67136083D01*
X174554258Y-67137707D01*
X174565840Y-67150335D01*
X174594776Y-67181884D01*
X174597534Y-67184196D01*
X174607630Y-67193668D01*
X174628950Y-67216035D01*
X174637917Y-67226559D01*
X174640106Y-67229440D01*
X174682236Y-67271971D01*
X174683894Y-67273677D01*
X174725238Y-67317049D01*
X174728044Y-67319311D01*
X174738320Y-67328587D01*
X174760027Y-67350501D01*
X174769198Y-67360855D01*
X174771439Y-67363689D01*
X174814387Y-67405409D01*
X174816026Y-67407032D01*
X174857873Y-67449277D01*
X174858234Y-67449641D01*
X174861088Y-67451852D01*
X174871543Y-67460931D01*
X174893636Y-67482393D01*
X174903009Y-67492575D01*
X174905305Y-67495368D01*
X174949093Y-67536295D01*
X174950808Y-67537930D01*
X174993740Y-67579635D01*
X174993750Y-67579641D01*
X174996623Y-67581780D01*
X175007250Y-67590656D01*
X175029759Y-67611695D01*
X175039329Y-67621697D01*
X175041672Y-67624437D01*
X175041674Y-67624440D01*
X175041676Y-67624442D01*
X175041678Y-67624444D01*
X175086201Y-67664484D01*
X175087958Y-67666095D01*
X175131701Y-67706982D01*
X175134638Y-67709081D01*
X175145445Y-67717759D01*
X175168336Y-67738346D01*
X175178087Y-67748152D01*
X175180498Y-67750864D01*
X175225804Y-67790057D01*
X175227557Y-67791602D01*
X175272104Y-67831663D01*
X175272105Y-67831663D01*
X175272108Y-67831666D01*
X175275094Y-67833716D01*
X175286044Y-67842168D01*
X175309345Y-67862324D01*
X175319288Y-67871946D01*
X175321750Y-67874610D01*
X175321752Y-67874611D01*
X175321753Y-67874613D01*
X175367802Y-67912924D01*
X175369512Y-67914373D01*
X175414889Y-67953627D01*
X175414890Y-67953627D01*
X175414892Y-67953629D01*
X175417926Y-67955627D01*
X175429032Y-67963864D01*
X175452748Y-67983593D01*
X175462876Y-67993023D01*
X175465390Y-67995640D01*
X175465392Y-67995642D01*
X175465394Y-67995644D01*
X175501110Y-68024211D01*
X175512147Y-68033039D01*
X175513998Y-68034549D01*
X175560033Y-68072847D01*
X175563108Y-68074788D01*
X175574380Y-68082815D01*
X175598502Y-68102109D01*
X175608804Y-68111336D01*
X175611389Y-68113925D01*
X175611390Y-68113926D01*
X175658912Y-68150456D01*
X175660721Y-68151874D01*
X175707493Y-68189284D01*
X175707497Y-68189286D01*
X175710606Y-68191166D01*
X175722022Y-68198969D01*
X175746591Y-68217854D01*
X175757078Y-68226889D01*
X175759696Y-68229412D01*
X175759699Y-68229416D01*
X175807863Y-68264982D01*
X175809744Y-68266400D01*
X175843608Y-68292430D01*
X175857236Y-68302906D01*
X175857238Y-68302907D01*
X175860392Y-68304732D01*
X175871959Y-68312314D01*
X175896951Y-68330769D01*
X175907594Y-68339586D01*
X175910293Y-68342088D01*
X175959181Y-68376751D01*
X175961121Y-68378155D01*
X176009218Y-68413672D01*
X176009220Y-68413672D01*
X176012423Y-68415444D01*
X176024113Y-68422787D01*
X176049581Y-68440844D01*
X176060386Y-68449451D01*
X176063123Y-68451893D01*
X176112620Y-68485568D01*
X176114590Y-68486936D01*
X176163415Y-68521554D01*
X176166644Y-68523259D01*
X176178502Y-68530393D01*
X176204416Y-68548024D01*
X176212122Y-68553985D01*
X176266661Y-68590379D01*
X176267587Y-68591003D01*
X176321841Y-68627917D01*
X176330274Y-68632829D01*
X176408173Y-68684812D01*
X176427733Y-68700987D01*
X176428879Y-68702152D01*
X176470438Y-68726599D01*
X176476356Y-68730311D01*
X176516444Y-68757063D01*
X176517979Y-68757583D01*
X176541067Y-68768149D01*
X178721392Y-70050780D01*
X178722777Y-70051607D01*
X178920211Y-70171237D01*
X178922932Y-70172935D01*
X178954762Y-70193383D01*
X179113516Y-70295366D01*
X179116227Y-70297158D01*
X179303333Y-70424402D01*
X179305991Y-70426261D01*
X179489508Y-70558224D01*
X179492067Y-70560116D01*
X179671988Y-70696773D01*
X179674545Y-70698769D01*
X179850710Y-70839991D01*
X179853212Y-70842051D01*
X180025562Y-70987773D01*
X180028009Y-70989898D01*
X180196462Y-71140049D01*
X180198834Y-71142218D01*
X180238542Y-71179519D01*
X180363319Y-71296732D01*
X180365652Y-71298981D01*
X180526067Y-71457763D01*
X180528340Y-71460074D01*
X180684586Y-71623033D01*
X180686800Y-71625403D01*
X180838813Y-71792482D01*
X180840965Y-71794910D01*
X180988674Y-71966048D01*
X180990715Y-71968476D01*
X180998210Y-71977633D01*
X181134007Y-72143560D01*
X181136033Y-72146103D01*
X181274824Y-72325063D01*
X181276783Y-72327659D01*
X181413327Y-72513593D01*
X181414307Y-72514946D01*
X181818569Y-73081275D01*
X181819768Y-73082985D01*
X181995165Y-73337800D01*
X181997534Y-73341375D01*
X182098539Y-73499776D01*
X182160603Y-73597109D01*
X182162884Y-73600828D01*
X182316764Y-73861985D01*
X182318910Y-73865779D01*
X182463462Y-74132087D01*
X182465470Y-74135946D01*
X182489213Y-74183611D01*
X182600561Y-74407143D01*
X182602435Y-74411077D01*
X182727959Y-74686956D01*
X182729695Y-74690956D01*
X182845507Y-74971232D01*
X182847101Y-74975291D01*
X182955038Y-75264975D01*
X182955766Y-75266981D01*
X183378362Y-76463717D01*
X183378810Y-76465009D01*
X183439026Y-76641712D01*
X183439847Y-76644207D01*
X183495303Y-76818986D01*
X183496071Y-76821497D01*
X183547772Y-76997266D01*
X183548486Y-76999793D01*
X183596430Y-77176532D01*
X183597090Y-77179071D01*
X183641274Y-77356743D01*
X183641880Y-77359296D01*
X183682271Y-77537761D01*
X183682823Y-77540326D01*
X183719420Y-77719562D01*
X183719918Y-77722138D01*
X183752717Y-77902120D01*
X183753160Y-77904707D01*
X183782142Y-78085346D01*
X183782530Y-78087941D01*
X183807676Y-78269099D01*
X183808010Y-78271704D01*
X183829329Y-78453485D01*
X183829607Y-78456099D01*
X183847064Y-78638239D01*
X183847287Y-78640858D01*
X183860890Y-78823485D01*
X183861058Y-78826111D01*
X183870786Y-79009036D01*
X183870898Y-79011666D01*
X183876746Y-79194913D01*
X183876802Y-79197549D01*
X183878790Y-79384389D01*
X183878797Y-79385708D01*
X183878797Y-82491310D01*
X183878788Y-82492791D01*
X183876286Y-82702325D01*
X183876216Y-82705279D01*
X183868859Y-82910839D01*
X183868718Y-82913790D01*
X183856478Y-83118926D01*
X183856267Y-83121868D01*
X183839170Y-83326422D01*
X183838890Y-83329358D01*
X183816929Y-83533492D01*
X183816579Y-83536416D01*
X183789796Y-83739821D01*
X183789377Y-83742734D01*
X183757783Y-83945383D01*
X183757295Y-83948286D01*
X183720903Y-84150115D01*
X183720347Y-84153003D01*
X183679178Y-84353915D01*
X183678553Y-84356789D01*
X183632629Y-84556676D01*
X183631937Y-84559535D01*
X183581258Y-84758376D01*
X183580498Y-84761216D01*
X183525095Y-84958885D01*
X183524267Y-84961709D01*
X183464173Y-85158061D01*
X183463278Y-85160865D01*
X183398493Y-85355877D01*
X183397531Y-85358662D01*
X183328061Y-85552275D01*
X183327033Y-85555037D01*
X183251645Y-85750410D01*
X183251075Y-85751860D01*
X182893707Y-86644445D01*
X182892954Y-86646283D01*
X182803998Y-86858546D01*
X182802358Y-86862285D01*
X182708760Y-87066489D01*
X182707000Y-87070168D01*
X182606772Y-87271116D01*
X182604894Y-87274731D01*
X182498159Y-87472204D01*
X182496165Y-87475754D01*
X182382961Y-87669690D01*
X182380859Y-87673158D01*
X182261343Y-87863294D01*
X182259146Y-87866665D01*
X182133384Y-88052880D01*
X182131051Y-88056215D01*
X181996230Y-88242365D01*
X181994998Y-88244037D01*
X181106100Y-89429058D01*
X181097295Y-89439537D01*
X181094338Y-89442685D01*
X181059585Y-89491028D01*
X181058097Y-89493054D01*
X181024996Y-89537182D01*
X181019539Y-89543949D01*
X181014975Y-89549219D01*
X180985667Y-89593676D01*
X180982825Y-89597804D01*
X180950819Y-89642327D01*
X180941082Y-89657096D01*
X180912699Y-89704180D01*
X180910031Y-89708410D01*
X180879595Y-89754579D01*
X180871104Y-89768663D01*
X180844410Y-89817268D01*
X180841923Y-89821588D01*
X180813154Y-89869316D01*
X180805731Y-89882830D01*
X180780844Y-89932804D01*
X180778536Y-89937214D01*
X180751572Y-89986312D01*
X180745073Y-89999364D01*
X180722075Y-90050595D01*
X180719952Y-90055082D01*
X180694853Y-90105488D01*
X180689162Y-90118167D01*
X180668156Y-90170481D01*
X180666214Y-90175050D01*
X180643089Y-90226573D01*
X180638064Y-90239087D01*
X180619116Y-90292350D01*
X180617361Y-90296987D01*
X180596275Y-90349507D01*
X180591832Y-90361997D01*
X180575018Y-90416021D01*
X180573449Y-90420728D01*
X180554477Y-90474063D01*
X180550538Y-90486721D01*
X180535896Y-90541398D01*
X180534517Y-90546165D01*
X180517722Y-90600132D01*
X180514238Y-90613146D01*
X180501822Y-90668252D01*
X180500635Y-90673069D01*
X180486048Y-90727541D01*
X180483000Y-90741076D01*
X180472837Y-90796464D01*
X180471842Y-90801332D01*
X180459498Y-90856131D01*
X180456880Y-90870401D01*
X180448986Y-90925903D01*
X180448187Y-90930815D01*
X180438108Y-90985756D01*
X180435944Y-91000968D01*
X180430327Y-91056386D01*
X180429724Y-91061337D01*
X180421912Y-91116268D01*
X180420261Y-91132571D01*
X180416903Y-91187837D01*
X180416499Y-91192818D01*
X180410954Y-91247532D01*
X180409887Y-91265107D01*
X180408776Y-91319950D01*
X180408573Y-91324953D01*
X180405343Y-91378138D01*
X180405835Y-91385135D01*
X180406140Y-91393828D01*
X180406140Y-91448890D01*
X180406115Y-91451399D01*
X180404909Y-91510958D01*
X180405382Y-91515213D01*
X180406140Y-91528904D01*
X180406140Y-109705658D01*
X180405182Y-109721038D01*
X178793448Y-122614869D01*
X178791194Y-122627527D01*
X176225558Y-133680211D01*
X176225169Y-133681838D01*
X176171281Y-133900552D01*
X176170443Y-133903767D01*
X176111896Y-134116658D01*
X176110973Y-134119846D01*
X176046832Y-134330823D01*
X176045826Y-134333982D01*
X175976105Y-134543058D01*
X175975015Y-134546185D01*
X175899818Y-134753098D01*
X175898646Y-134756194D01*
X175817978Y-134960962D01*
X175816725Y-134964023D01*
X175730642Y-135166525D01*
X175729308Y-135169550D01*
X175637883Y-135369628D01*
X175636483Y-135372587D01*
X175539727Y-135570219D01*
X175538274Y-135573088D01*
X175519910Y-135608198D01*
X175436268Y-135768102D01*
X175434697Y-135771010D01*
X175327543Y-135963209D01*
X175325894Y-135966077D01*
X175213539Y-136155537D01*
X175211813Y-136158360D01*
X175094395Y-136344831D01*
X175092594Y-136347609D01*
X174970133Y-136531039D01*
X174968256Y-136533771D01*
X174840787Y-136714072D01*
X174838835Y-136716755D01*
X174703955Y-136897102D01*
X174702921Y-136898465D01*
X174367710Y-137334011D01*
X174366736Y-137335260D01*
X174273650Y-137453065D01*
X174271617Y-137455570D01*
X174178271Y-137567585D01*
X174176176Y-137570034D01*
X174080057Y-137679463D01*
X174077900Y-137681855D01*
X173979060Y-137788655D01*
X173976842Y-137790990D01*
X173875327Y-137895121D01*
X173873052Y-137897395D01*
X173768916Y-137998812D01*
X173766581Y-138001028D01*
X173659839Y-138099715D01*
X173657450Y-138101867D01*
X173623407Y-138131742D01*
X173574097Y-138175015D01*
X173548299Y-138197654D01*
X173545852Y-138199745D01*
X173434165Y-138292739D01*
X173431665Y-138294767D01*
X173317631Y-138384807D01*
X173315078Y-138386770D01*
X173198705Y-138473848D01*
X173196099Y-138475745D01*
X173077440Y-138559812D01*
X173074783Y-138561643D01*
X172953922Y-138642631D01*
X172951216Y-138644394D01*
X172828166Y-138722283D01*
X172825411Y-138723977D01*
X172700283Y-138798684D01*
X172697480Y-138800308D01*
X172570927Y-138871449D01*
X172567820Y-138873138D01*
X172411590Y-138955188D01*
X172408127Y-138956938D01*
X172250514Y-139033522D01*
X172247003Y-139035161D01*
X172087273Y-139106694D01*
X172083718Y-139108219D01*
X171922059Y-139174643D01*
X171918462Y-139176056D01*
X171754974Y-139237349D01*
X171751337Y-139238649D01*
X171586088Y-139294797D01*
X171582414Y-139295982D01*
X171415590Y-139346931D01*
X171411884Y-139348000D01*
X171243620Y-139393718D01*
X171239880Y-139394672D01*
X171070243Y-139435139D01*
X171066474Y-139435976D01*
X170895630Y-139471149D01*
X170891837Y-139471868D01*
X170719906Y-139501718D01*
X170716088Y-139502320D01*
X170543236Y-139526808D01*
X170539398Y-139527291D01*
X170365624Y-139546401D01*
X170361768Y-139546764D01*
X170187310Y-139560451D01*
X170183440Y-139560694D01*
X170008402Y-139568931D01*
X170004518Y-139569053D01*
X169824050Y-139571884D01*
X169822105Y-139571899D01*
X165886795Y-139571899D01*
X165875568Y-139571390D01*
X165848519Y-139568931D01*
X165755241Y-139560451D01*
X163417023Y-139347882D01*
X163393682Y-139343475D01*
X163388134Y-139341864D01*
X163388129Y-139341863D01*
X163344078Y-139340947D01*
X163335434Y-139340465D01*
X163301609Y-139337390D01*
X163291537Y-139336475D01*
X163291536Y-139336475D01*
X163291529Y-139336475D01*
X163285837Y-139337459D01*
X163262150Y-139339242D01*
X163054417Y-139334921D01*
X163049270Y-139334707D01*
X162795689Y-139318877D01*
X162790568Y-139318451D01*
X162538506Y-139292195D01*
X162533417Y-139291558D01*
X162283179Y-139254978D01*
X162278130Y-139254133D01*
X162254888Y-139249749D01*
X162227925Y-139244663D01*
X162030070Y-139207342D01*
X162025070Y-139206292D01*
X161779411Y-139149381D01*
X161774462Y-139148126D01*
X161531585Y-139081215D01*
X161526695Y-139079759D01*
X161286880Y-139002946D01*
X161282055Y-139001291D01*
X161045599Y-138914680D01*
X161040846Y-138912827D01*
X160808038Y-138816516D01*
X160803361Y-138814467D01*
X160574564Y-138708583D01*
X160569971Y-138706342D01*
X160345421Y-138590959D01*
X160340916Y-138588525D01*
X160120973Y-138463773D01*
X160116581Y-138461161D01*
X159901514Y-138327126D01*
X159897209Y-138324317D01*
X159687328Y-138181106D01*
X159683133Y-138178113D01*
X159473433Y-138021870D01*
X159471420Y-138020338D01*
X159251010Y-137849014D01*
X159239450Y-137838815D01*
X159190446Y-137789836D01*
X159138733Y-137738148D01*
X158899436Y-137498971D01*
X158898239Y-137497758D01*
X158782939Y-137379304D01*
X158780679Y-137376920D01*
X158671488Y-137258575D01*
X158669367Y-137256214D01*
X158563414Y-137135046D01*
X158561335Y-137132602D01*
X158458794Y-137008827D01*
X158456759Y-137006303D01*
X158405549Y-136941023D01*
X158357671Y-136879990D01*
X158355679Y-136877381D01*
X158340837Y-136857388D01*
X158260028Y-136748531D01*
X158258108Y-136745871D01*
X158250259Y-136734688D01*
X158165947Y-136614558D01*
X158164097Y-136611845D01*
X158102790Y-136519352D01*
X158075496Y-136478172D01*
X158073714Y-136475404D01*
X158073441Y-136474968D01*
X157988743Y-136339490D01*
X157987032Y-136336670D01*
X157905625Y-136198401D01*
X157904011Y-136195576D01*
X157826318Y-136055195D01*
X157824758Y-136052285D01*
X157750802Y-135909828D01*
X157749317Y-135906873D01*
X157679116Y-135762351D01*
X157677711Y-135759357D01*
X157619886Y-135631762D01*
X157611330Y-135612884D01*
X157610010Y-135609864D01*
X157609308Y-135608198D01*
X157547483Y-135461475D01*
X157546247Y-135458428D01*
X157542410Y-135448596D01*
X157487234Y-135307201D01*
X157486245Y-135304577D01*
X157445030Y-135191295D01*
X157444194Y-135188923D01*
X157405009Y-135074021D01*
X157404223Y-135071636D01*
X157367343Y-134955870D01*
X157366605Y-134953471D01*
X157361361Y-134935779D01*
X157332082Y-134837002D01*
X157331406Y-134834634D01*
X157309869Y-134756194D01*
X157299227Y-134717435D01*
X157298599Y-134715051D01*
X157268770Y-134597128D01*
X157268181Y-134594695D01*
X157264833Y-134580236D01*
X157240763Y-134476294D01*
X157240229Y-134473876D01*
X157214546Y-134351807D01*
X157214297Y-134350595D01*
X157212170Y-134339962D01*
X156448252Y-130520376D01*
X156447963Y-130518881D01*
X156437643Y-130463766D01*
X156437117Y-130460752D01*
X156428774Y-130409196D01*
X156428324Y-130406177D01*
X156427059Y-130396918D01*
X156421257Y-130354459D01*
X156420901Y-130351585D01*
X156415114Y-130299716D01*
X156414822Y-130296766D01*
X156410314Y-130244734D01*
X156410090Y-130241714D01*
X156409834Y-130237577D01*
X156406873Y-130189662D01*
X156406723Y-130186611D01*
X156404793Y-130134514D01*
X156404717Y-130131452D01*
X156404024Y-130075262D01*
X156404015Y-130073733D01*
X156404015Y-128570850D01*
X156404706Y-128557776D01*
X156405520Y-128550094D01*
X156404055Y-128492139D01*
X156404015Y-128489005D01*
X156404015Y-128487502D01*
X156405998Y-128466226D01*
X156406062Y-128465055D01*
X156406064Y-128465048D01*
X156404372Y-128442794D01*
X156404015Y-128433394D01*
X156404015Y-128430984D01*
X156403178Y-128424628D01*
X156402474Y-128417838D01*
X156402265Y-128415088D01*
X156401948Y-128408822D01*
X156401666Y-128397656D01*
X156402330Y-128385619D01*
X156402352Y-128380784D01*
X156401755Y-128376087D01*
X156400805Y-128363601D01*
X156400684Y-128358777D01*
X156400681Y-128358768D01*
X156399944Y-128354080D01*
X156397444Y-128342163D01*
X156396029Y-128331026D01*
X156395400Y-128324817D01*
X156394618Y-128314528D01*
X156394676Y-128302028D01*
X156394466Y-128297450D01*
X156394465Y-128297448D01*
X156394466Y-128297446D01*
X156393568Y-128292415D01*
X156391995Y-128280031D01*
X156391601Y-128274847D01*
X156391599Y-128274841D01*
X156391599Y-128274839D01*
X156390675Y-128270434D01*
X156387460Y-128258214D01*
X156385643Y-128248036D01*
X156384706Y-128241900D01*
X156383505Y-128232445D01*
X156382919Y-128219611D01*
X156382496Y-128215222D01*
X156382497Y-128215216D01*
X156381270Y-128209900D01*
X156379084Y-128197646D01*
X156378382Y-128192119D01*
X156378381Y-128192116D01*
X156378381Y-128192113D01*
X156378379Y-128192109D01*
X156377291Y-128187973D01*
X156373334Y-128175511D01*
X156371195Y-128166239D01*
X156369952Y-128160164D01*
X156368415Y-128151557D01*
X156367151Y-128138400D01*
X156366537Y-128134214D01*
X156366537Y-128134212D01*
X156364947Y-128128614D01*
X156362164Y-128116549D01*
X156361121Y-128110704D01*
X156361118Y-128110699D01*
X156359877Y-128106788D01*
X156355180Y-128094220D01*
X156352787Y-128085793D01*
X156351263Y-128079866D01*
X156349442Y-128071978D01*
X156347494Y-128058687D01*
X156346689Y-128054617D01*
X156346689Y-128054611D01*
X156344727Y-128048812D01*
X156341360Y-128036947D01*
X156339940Y-128030796D01*
X156338571Y-128027132D01*
X156333111Y-128014481D01*
X156330525Y-128006839D01*
X156328717Y-128001026D01*
X156326693Y-127993895D01*
X156324039Y-127980469D01*
X156323061Y-127976552D01*
X156323060Y-127976541D01*
X156320677Y-127970497D01*
X156316755Y-127958901D01*
X156314940Y-127952505D01*
X156314938Y-127952501D01*
X156313413Y-127948968D01*
X156307238Y-127936412D01*
X156304534Y-127929554D01*
X156302444Y-127923842D01*
X156300270Y-127917417D01*
X156296903Y-127903920D01*
X156295753Y-127900117D01*
X156295749Y-127900108D01*
X156292950Y-127893916D01*
X156288484Y-127882583D01*
X156286254Y-127875991D01*
X156286252Y-127875988D01*
X156284575Y-127872579D01*
X156277697Y-127860176D01*
X156274915Y-127854021D01*
X156272546Y-127848418D01*
X156272215Y-127847579D01*
X156271618Y-127846065D01*
X156270258Y-127842613D01*
X156266181Y-127829123D01*
X156264875Y-127825459D01*
X156261646Y-127819155D01*
X156256656Y-127808113D01*
X156253999Y-127801375D01*
X156253998Y-127801373D01*
X156253998Y-127801372D01*
X156253995Y-127801368D01*
X156252186Y-127798107D01*
X156244620Y-127785913D01*
X156241780Y-127780369D01*
X156239147Y-127774904D01*
X156236785Y-127769678D01*
X156232021Y-127756304D01*
X156230541Y-127752712D01*
X156230538Y-127752708D01*
X156230538Y-127752705D01*
X156226868Y-127746323D01*
X156221379Y-127735599D01*
X156218286Y-127728756D01*
X156218284Y-127728754D01*
X156216335Y-127725613D01*
X156208098Y-127713677D01*
X156205246Y-127708717D01*
X156202368Y-127703419D01*
X156199937Y-127698671D01*
X156194469Y-127685398D01*
X156192841Y-127681932D01*
X156188728Y-127675516D01*
X156182752Y-127665120D01*
X156179234Y-127658251D01*
X156179232Y-127658249D01*
X156179232Y-127658248D01*
X156177117Y-127655185D01*
X156168286Y-127643630D01*
X156165419Y-127639158D01*
X156162316Y-127634051D01*
X156159823Y-127629716D01*
X156153687Y-127616652D01*
X156151887Y-127613256D01*
X156151885Y-127613251D01*
X156151290Y-127612415D01*
X156147363Y-127606891D01*
X156140920Y-127596840D01*
X156136975Y-127589979D01*
X156134729Y-127587042D01*
X156125299Y-127575868D01*
X156122388Y-127571775D01*
X156119079Y-127566876D01*
X156116515Y-127562877D01*
X156109732Y-127550071D01*
X156107784Y-127546785D01*
X156102867Y-127540529D01*
X156095970Y-127530829D01*
X156091607Y-127524023D01*
X156089229Y-127521206D01*
X156079215Y-127510433D01*
X156076297Y-127506720D01*
X156072767Y-127501999D01*
X156070160Y-127498334D01*
X156062725Y-127485794D01*
X156060623Y-127482607D01*
X156060622Y-127482604D01*
X156055295Y-127476455D01*
X156047975Y-127467138D01*
X156043239Y-127460479D01*
X156043237Y-127460476D01*
X156043235Y-127460474D01*
X156043232Y-127460471D01*
X156040674Y-127457720D01*
X156030189Y-127447474D01*
X156027244Y-127444074D01*
X156023511Y-127439552D01*
X156020786Y-127436084D01*
X156012754Y-127423900D01*
X156010505Y-127420820D01*
X156008888Y-127419124D01*
X156004837Y-127414875D01*
X155997091Y-127405933D01*
X155991991Y-127399443D01*
X155991986Y-127399439D01*
X155989309Y-127396823D01*
X155978322Y-127387068D01*
X155975301Y-127383899D01*
X155971331Y-127379531D01*
X155968529Y-127376296D01*
X155959901Y-127364479D01*
X155957517Y-127361522D01*
X155957514Y-127361516D01*
X155951522Y-127355803D01*
X155943371Y-127347255D01*
X155937953Y-127341000D01*
X155937951Y-127340998D01*
X155935116Y-127338482D01*
X155923715Y-127329294D01*
X155920616Y-127326340D01*
X155916419Y-127322144D01*
X155913460Y-127319040D01*
X155904264Y-127307631D01*
X155901760Y-127304810D01*
X155895501Y-127299389D01*
X155886946Y-127291232D01*
X155881235Y-127285243D01*
X155881234Y-127285242D01*
X155878279Y-127282861D01*
X155866446Y-127274222D01*
X155863211Y-127271420D01*
X155858835Y-127267443D01*
X155855688Y-127264443D01*
X155845954Y-127253481D01*
X155843308Y-127250772D01*
X155836809Y-127245666D01*
X155827864Y-127237919D01*
X155821928Y-127232260D01*
X155821924Y-127232257D01*
X155818848Y-127230011D01*
X155806650Y-127221970D01*
X155803242Y-127219292D01*
X155798677Y-127215525D01*
X155798671Y-127215520D01*
X155795268Y-127212572D01*
X155785021Y-127202088D01*
X155782272Y-127199531D01*
X155775613Y-127194797D01*
X155766295Y-127187477D01*
X155760145Y-127182150D01*
X155760143Y-127182149D01*
X155760142Y-127182148D01*
X155756986Y-127180067D01*
X155744428Y-127172624D01*
X155740775Y-127170027D01*
X155736026Y-127166477D01*
X155732310Y-127163557D01*
X155721595Y-127153596D01*
X155718726Y-127151174D01*
X155711926Y-127146815D01*
X155702239Y-127139928D01*
X155695960Y-127134994D01*
X155692695Y-127133059D01*
X155679854Y-127126256D01*
X155675897Y-127123720D01*
X155670962Y-127120387D01*
X155666912Y-127117508D01*
X155655727Y-127108072D01*
X155652768Y-127105810D01*
X155645892Y-127101857D01*
X155635845Y-127095419D01*
X155632389Y-127092962D01*
X155629484Y-127090896D01*
X155629483Y-127090895D01*
X155629481Y-127090894D01*
X155626096Y-127089101D01*
X155613036Y-127082968D01*
X155608698Y-127080474D01*
X155603593Y-127077372D01*
X155599119Y-127074504D01*
X155587580Y-127065685D01*
X155584500Y-127063559D01*
X155584498Y-127063558D01*
X155577614Y-127060032D01*
X155567237Y-127054068D01*
X155560817Y-127049953D01*
X155560816Y-127049952D01*
X155560815Y-127049952D01*
X155557347Y-127048323D01*
X155544051Y-127042845D01*
X155540288Y-127040918D01*
X155539312Y-127040418D01*
X155534038Y-127037553D01*
X155529069Y-127034696D01*
X155517152Y-127026472D01*
X155514001Y-127024516D01*
X155507132Y-127021411D01*
X155496434Y-127015934D01*
X155490044Y-127012261D01*
X155490043Y-127012260D01*
X155490042Y-127012260D01*
X155486460Y-127010784D01*
X155473048Y-127006004D01*
X155469452Y-127004379D01*
X155467819Y-127003641D01*
X155462393Y-127001026D01*
X155456851Y-126998188D01*
X155444655Y-126990623D01*
X155441382Y-126988808D01*
X155434648Y-126986153D01*
X155423614Y-126981168D01*
X155417294Y-126977932D01*
X155417293Y-126977931D01*
X155417290Y-126977930D01*
X155417285Y-126977929D01*
X155413617Y-126976621D01*
X155400115Y-126972540D01*
X155394334Y-126970261D01*
X155388743Y-126967897D01*
X155382583Y-126965113D01*
X155370182Y-126958237D01*
X155366767Y-126956557D01*
X155360171Y-126954326D01*
X155348835Y-126949858D01*
X155342645Y-126947060D01*
X155342640Y-126947058D01*
X155342639Y-126947058D01*
X155342637Y-126947057D01*
X155338881Y-126945922D01*
X155325339Y-126942542D01*
X155318939Y-126940377D01*
X155313198Y-126938276D01*
X155306364Y-126935582D01*
X155293805Y-126929407D01*
X155290271Y-126927882D01*
X155290267Y-126927880D01*
X155287932Y-126927216D01*
X155283852Y-126926058D01*
X155272267Y-126922141D01*
X155270543Y-126921461D01*
X155266218Y-126919757D01*
X155266216Y-126919756D01*
X155262327Y-126918785D01*
X155248849Y-126916120D01*
X155241774Y-126914112D01*
X155235903Y-126912286D01*
X155228304Y-126909715D01*
X155215677Y-126904266D01*
X155211980Y-126902885D01*
X155205817Y-126901463D01*
X155193974Y-126898102D01*
X155188153Y-126896133D01*
X155188148Y-126896132D01*
X155184102Y-126895332D01*
X155170769Y-126893376D01*
X155167791Y-126892689D01*
X155162938Y-126891569D01*
X155156958Y-126890031D01*
X155148569Y-126887649D01*
X155135984Y-126882947D01*
X155132085Y-126881709D01*
X155126231Y-126880664D01*
X155114166Y-126877882D01*
X155108562Y-126876291D01*
X155108560Y-126876290D01*
X155108557Y-126876290D01*
X155104401Y-126875679D01*
X155091233Y-126874414D01*
X155083321Y-126873002D01*
X155082628Y-126872878D01*
X155076531Y-126871631D01*
X155067268Y-126869493D01*
X155054808Y-126865537D01*
X155050687Y-126864453D01*
X155050684Y-126864452D01*
X155050679Y-126864451D01*
X155050678Y-126864451D01*
X155045136Y-126863747D01*
X155032887Y-126861562D01*
X155030270Y-126860958D01*
X155027567Y-126860334D01*
X155023188Y-126859913D01*
X155010334Y-126859325D01*
X155000901Y-126858126D01*
X154994745Y-126857186D01*
X154984589Y-126855373D01*
X154972340Y-126852152D01*
X154967960Y-126851234D01*
X154962776Y-126850840D01*
X154950397Y-126849268D01*
X154945352Y-126848368D01*
X154940800Y-126848159D01*
X154928277Y-126848216D01*
X154917977Y-126847434D01*
X154911757Y-126846803D01*
X154900654Y-126845392D01*
X154888732Y-126842892D01*
X154884050Y-126842155D01*
X154884049Y-126842154D01*
X154884043Y-126842154D01*
X154879221Y-126842032D01*
X154866747Y-126841085D01*
X154862020Y-126840485D01*
X154857227Y-126840507D01*
X154845159Y-126841170D01*
X154833961Y-126840887D01*
X154827713Y-126840571D01*
X154815702Y-126839658D01*
X154804269Y-126837858D01*
X154799185Y-126837319D01*
X154799183Y-126837319D01*
X154799180Y-126837319D01*
X154794743Y-126837431D01*
X154782232Y-126837114D01*
X154777765Y-126836774D01*
X154772726Y-126837052D01*
X154761127Y-126838280D01*
X154749093Y-126838584D01*
X154742830Y-126838584D01*
X154730800Y-126838280D01*
X154719206Y-126837052D01*
X154714159Y-126836774D01*
X154709691Y-126837114D01*
X154697181Y-126837431D01*
X154692741Y-126837319D01*
X154692740Y-126837319D01*
X154687678Y-126837855D01*
X154676230Y-126839657D01*
X154664214Y-126840571D01*
X154657957Y-126840888D01*
X154646764Y-126841170D01*
X154634694Y-126840507D01*
X154629903Y-126840485D01*
X154629902Y-126840485D01*
X154629895Y-126840485D01*
X154625171Y-126841085D01*
X154612710Y-126842032D01*
X154607871Y-126842154D01*
X154603203Y-126842889D01*
X154591265Y-126845392D01*
X154580167Y-126846802D01*
X154573940Y-126847434D01*
X154563656Y-126848216D01*
X154551121Y-126848159D01*
X154546569Y-126848368D01*
X154541534Y-126849267D01*
X154529147Y-126850840D01*
X154523961Y-126851234D01*
X154519602Y-126852148D01*
X154507344Y-126855371D01*
X154497169Y-126857188D01*
X154490997Y-126858130D01*
X154481582Y-126859326D01*
X154468719Y-126859915D01*
X154464345Y-126860335D01*
X154459025Y-126861563D01*
X154446790Y-126863746D01*
X154441244Y-126864450D01*
X154437119Y-126865535D01*
X154424640Y-126869497D01*
X154415362Y-126871637D01*
X154409292Y-126872878D01*
X154400702Y-126874412D01*
X154387532Y-126875678D01*
X154383347Y-126876292D01*
X154377736Y-126877885D01*
X154365704Y-126880661D01*
X154359834Y-126881710D01*
X154355938Y-126882947D01*
X154343364Y-126887645D01*
X154334959Y-126890032D01*
X154328961Y-126891574D01*
X154321139Y-126893379D01*
X154307803Y-126895334D01*
X154303778Y-126896131D01*
X154297958Y-126898100D01*
X154286110Y-126901461D01*
X154279948Y-126902882D01*
X154276262Y-126904260D01*
X154263611Y-126909718D01*
X154256029Y-126912283D01*
X154250166Y-126914106D01*
X154243081Y-126916118D01*
X154229599Y-126918784D01*
X154225704Y-126919756D01*
X154219656Y-126922141D01*
X154208054Y-126926064D01*
X154201650Y-126927882D01*
X154198125Y-126929403D01*
X154185556Y-126935582D01*
X154178719Y-126938277D01*
X154172981Y-126940377D01*
X154166581Y-126942542D01*
X154153049Y-126945918D01*
X154149279Y-126947058D01*
X154143077Y-126949862D01*
X154131759Y-126954322D01*
X154125157Y-126956556D01*
X154121788Y-126958212D01*
X154109347Y-126965109D01*
X154103192Y-126967891D01*
X154097606Y-126970253D01*
X154091811Y-126972538D01*
X154078311Y-126976619D01*
X154074631Y-126977930D01*
X154068309Y-126981168D01*
X154057275Y-126986153D01*
X154050542Y-126988807D01*
X154047282Y-126990615D01*
X154035077Y-126998185D01*
X154029533Y-127001024D01*
X154024096Y-127003644D01*
X154018867Y-127006008D01*
X154005464Y-127010783D01*
X154001873Y-127012263D01*
X153995480Y-127015938D01*
X153984768Y-127021421D01*
X153977927Y-127024513D01*
X153974763Y-127026476D01*
X153962850Y-127034696D01*
X153957845Y-127037573D01*
X153952588Y-127040428D01*
X153947878Y-127042841D01*
X153934584Y-127048319D01*
X153931112Y-127049949D01*
X153924693Y-127054064D01*
X153914323Y-127060024D01*
X153907422Y-127063558D01*
X153904372Y-127065663D01*
X153892793Y-127074512D01*
X153888326Y-127077375D01*
X153883217Y-127080478D01*
X153878891Y-127082965D01*
X153865841Y-127089094D01*
X153862431Y-127090900D01*
X153856064Y-127095427D01*
X153846040Y-127101852D01*
X153839147Y-127105815D01*
X153836207Y-127108063D01*
X153825021Y-127117499D01*
X153820969Y-127120380D01*
X153816032Y-127123715D01*
X153812071Y-127126254D01*
X153799250Y-127133045D01*
X153795955Y-127134998D01*
X153789682Y-127139928D01*
X153779993Y-127146816D01*
X153773200Y-127151170D01*
X153770372Y-127153556D01*
X153759619Y-127163549D01*
X153755925Y-127166452D01*
X153751163Y-127170013D01*
X153747498Y-127172619D01*
X153734957Y-127180054D01*
X153731788Y-127182143D01*
X153725651Y-127187459D01*
X153716331Y-127194780D01*
X153709653Y-127199528D01*
X153706919Y-127202069D01*
X153696652Y-127212574D01*
X153693251Y-127215520D01*
X153688661Y-127219307D01*
X153685253Y-127221984D01*
X153673040Y-127230036D01*
X153669990Y-127232263D01*
X153664028Y-127237946D01*
X153655104Y-127245675D01*
X153648610Y-127250778D01*
X153645978Y-127253471D01*
X153636242Y-127264434D01*
X153633086Y-127267443D01*
X153628706Y-127271424D01*
X153625470Y-127274227D01*
X153613627Y-127282874D01*
X153610677Y-127285252D01*
X153604966Y-127291241D01*
X153596424Y-127299384D01*
X153590174Y-127304797D01*
X153587657Y-127307632D01*
X153578454Y-127319047D01*
X153575499Y-127322146D01*
X153571319Y-127326327D01*
X153568214Y-127329287D01*
X153556797Y-127338489D01*
X153553977Y-127340993D01*
X153548563Y-127347243D01*
X153540407Y-127355796D01*
X153534410Y-127361513D01*
X153532034Y-127364460D01*
X153523380Y-127376311D01*
X153520571Y-127379553D01*
X153516598Y-127383923D01*
X153513605Y-127387062D01*
X153502611Y-127396825D01*
X153499927Y-127399447D01*
X153494816Y-127405951D01*
X153487074Y-127414890D01*
X153481413Y-127420827D01*
X153479170Y-127423899D01*
X153471132Y-127436087D01*
X153468429Y-127439526D01*
X153464663Y-127444088D01*
X153461723Y-127447482D01*
X153451235Y-127457732D01*
X153448684Y-127460476D01*
X153443950Y-127467134D01*
X153436625Y-127476455D01*
X153431308Y-127482592D01*
X153429218Y-127485761D01*
X153421780Y-127498308D01*
X153419179Y-127501966D01*
X153415620Y-127506726D01*
X153412707Y-127510433D01*
X153402728Y-127521167D01*
X153400323Y-127524017D01*
X153395961Y-127530820D01*
X153389079Y-127540499D01*
X153384142Y-127546781D01*
X153382187Y-127550078D01*
X153375397Y-127562894D01*
X153372857Y-127566856D01*
X153369506Y-127571816D01*
X153366619Y-127575874D01*
X153357166Y-127587078D01*
X153354944Y-127589983D01*
X153350988Y-127596865D01*
X153344548Y-127606912D01*
X153340038Y-127613253D01*
X153338240Y-127616647D01*
X153332113Y-127629690D01*
X153329619Y-127634028D01*
X153326513Y-127639142D01*
X153323631Y-127643638D01*
X153314793Y-127655202D01*
X153312680Y-127658262D01*
X153309159Y-127665138D01*
X153303194Y-127675515D01*
X153299087Y-127681922D01*
X153297447Y-127685411D01*
X153291973Y-127698694D01*
X153289539Y-127703444D01*
X153286688Y-127708694D01*
X153283827Y-127713671D01*
X153275604Y-127725587D01*
X153273642Y-127728748D01*
X153270542Y-127735605D01*
X153265060Y-127746311D01*
X153261386Y-127752700D01*
X153259905Y-127756294D01*
X153255127Y-127769703D01*
X153252766Y-127774924D01*
X153250156Y-127780342D01*
X153247316Y-127785889D01*
X153239737Y-127798104D01*
X153237923Y-127801375D01*
X153235259Y-127808132D01*
X153230278Y-127819154D01*
X153227047Y-127825463D01*
X153225739Y-127829131D01*
X153221661Y-127842621D01*
X153219376Y-127848420D01*
X153217003Y-127854030D01*
X153214212Y-127860202D01*
X153207330Y-127872614D01*
X153205669Y-127875991D01*
X153203439Y-127882581D01*
X153198980Y-127893893D01*
X153196174Y-127900100D01*
X153195028Y-127903889D01*
X153191652Y-127917416D01*
X153189481Y-127923831D01*
X153187386Y-127929556D01*
X153184683Y-127936413D01*
X153178495Y-127948999D01*
X153176979Y-127952511D01*
X153175158Y-127958924D01*
X153171244Y-127970497D01*
X153168865Y-127976533D01*
X153167888Y-127980447D01*
X153165229Y-127993893D01*
X153163213Y-128000995D01*
X153161386Y-128006871D01*
X153158816Y-128014467D01*
X153153371Y-128027086D01*
X153151986Y-128030791D01*
X153150567Y-128036940D01*
X153147204Y-128048787D01*
X153145234Y-128054609D01*
X153144437Y-128058637D01*
X153142479Y-128071983D01*
X153140669Y-128079827D01*
X153139126Y-128085825D01*
X153136740Y-128094226D01*
X153132033Y-128106828D01*
X153130800Y-128110707D01*
X153129754Y-128116569D01*
X153126971Y-128128636D01*
X153125386Y-128134218D01*
X153124772Y-128138398D01*
X153123510Y-128151530D01*
X153121973Y-128160145D01*
X153120724Y-128166253D01*
X153118583Y-128175529D01*
X153114624Y-128187997D01*
X153113541Y-128192116D01*
X153112836Y-128197660D01*
X153110655Y-128209883D01*
X153109426Y-128215207D01*
X153109005Y-128219588D01*
X153108417Y-128232445D01*
X153107214Y-128241907D01*
X153106275Y-128248056D01*
X153104461Y-128258219D01*
X153101242Y-128270461D01*
X153100319Y-128274862D01*
X153099925Y-128280041D01*
X153098355Y-128292415D01*
X153097456Y-128297447D01*
X153097247Y-128302015D01*
X153097304Y-128314521D01*
X153096521Y-128324817D01*
X153095889Y-128331047D01*
X153094475Y-128342173D01*
X153091978Y-128354084D01*
X153091240Y-128358771D01*
X153091118Y-128363594D01*
X153090171Y-128376052D01*
X153089571Y-128380776D01*
X153089593Y-128385577D01*
X153090257Y-128397645D01*
X153089975Y-128408826D01*
X153089657Y-128415106D01*
X153089450Y-128417827D01*
X153088748Y-128424590D01*
X153087908Y-128430976D01*
X153087908Y-128433413D01*
X153087551Y-128442812D01*
X153085860Y-128465055D01*
X153085924Y-128466228D01*
X153087908Y-128487503D01*
X153087908Y-128488991D01*
X153087868Y-128492127D01*
X153086401Y-128550083D01*
X153087217Y-128557772D01*
X153087908Y-128570847D01*
X153087908Y-135659947D01*
X153087889Y-135662108D01*
X153083124Y-135935545D01*
X153082974Y-135939859D01*
X153068987Y-136207339D01*
X153068687Y-136211641D01*
X153045417Y-136478382D01*
X153044968Y-136482669D01*
X153012445Y-136748407D01*
X153011847Y-136752673D01*
X152970114Y-137017117D01*
X152969369Y-137021360D01*
X152918452Y-137284312D01*
X152917559Y-137288529D01*
X152857490Y-137549743D01*
X152856450Y-137553929D01*
X152785889Y-137818303D01*
X152785313Y-137820390D01*
X152597520Y-138477719D01*
X152597025Y-138479404D01*
X152547130Y-138645129D01*
X152546080Y-138648448D01*
X152492975Y-138808420D01*
X152491833Y-138811706D01*
X152434335Y-138969925D01*
X152433102Y-138973174D01*
X152371250Y-139129573D01*
X152369929Y-139132783D01*
X152303768Y-139287286D01*
X152302358Y-139290455D01*
X152231936Y-139442971D01*
X152230438Y-139446100D01*
X152155814Y-139596513D01*
X152154230Y-139599597D01*
X152075426Y-139747874D01*
X152073759Y-139750905D01*
X152002217Y-139876889D01*
X151990884Y-139896845D01*
X151989129Y-139899836D01*
X151902145Y-140043497D01*
X151900306Y-140046441D01*
X151809333Y-140187615D01*
X151807411Y-140190507D01*
X151712468Y-140329156D01*
X151710465Y-140331996D01*
X151707129Y-140336586D01*
X151611574Y-140468065D01*
X151609507Y-140470827D01*
X151506787Y-140604132D01*
X151504622Y-140606862D01*
X151398026Y-140737439D01*
X151395797Y-140740092D01*
X151372359Y-140767208D01*
X151284905Y-140868382D01*
X151282805Y-140870749D01*
X151186821Y-140976227D01*
X151184812Y-140978383D01*
X151148817Y-141016089D01*
X151086059Y-141081828D01*
X151083990Y-141083943D01*
X150982918Y-141184881D01*
X150980803Y-141186944D01*
X150877401Y-141285402D01*
X150875238Y-141287413D01*
X150769585Y-141383321D01*
X150767377Y-141385278D01*
X150659558Y-141478572D01*
X150657307Y-141480474D01*
X150592582Y-141533843D01*
X150552863Y-141566593D01*
X150547291Y-141571187D01*
X150544994Y-141573035D01*
X150432864Y-141661099D01*
X150430555Y-141662868D01*
X150385224Y-141696761D01*
X150316397Y-141748220D01*
X150314020Y-141749953D01*
X150197823Y-141832604D01*
X150195403Y-141834283D01*
X150077191Y-141914209D01*
X150074733Y-141915828D01*
X149954715Y-141992888D01*
X149952220Y-141994449D01*
X149830250Y-142068735D01*
X149827718Y-142070236D01*
X149703922Y-142141662D01*
X149701353Y-142143104D01*
X149575782Y-142211631D01*
X149573180Y-142213011D01*
X149442678Y-142280257D01*
X149441324Y-142280944D01*
X148872789Y-142565143D01*
X148871526Y-142565766D01*
X148691158Y-142653383D01*
X148688603Y-142654588D01*
X148509747Y-142736488D01*
X148507168Y-142737634D01*
X148476362Y-142750901D01*
X148326627Y-142815385D01*
X148324043Y-142816463D01*
X148141909Y-142890034D01*
X148139284Y-142891060D01*
X147955607Y-142960442D01*
X147952959Y-142961408D01*
X147767843Y-143026566D01*
X147765175Y-143027471D01*
X147578659Y-143088396D01*
X147575972Y-143089240D01*
X147388154Y-143145902D01*
X147385447Y-143146685D01*
X147196377Y-143199069D01*
X147193656Y-143199790D01*
X147003469Y-143247862D01*
X147000729Y-143248522D01*
X146809350Y-143292293D01*
X146806594Y-143292890D01*
X146614313Y-143332290D01*
X146611545Y-143332824D01*
X146418250Y-143367873D01*
X146415466Y-143368346D01*
X146221284Y-143399005D01*
X146218490Y-143399413D01*
X146023546Y-143425659D01*
X146020740Y-143426004D01*
X145821526Y-143448214D01*
X145820131Y-143448362D01*
X143772393Y-143653223D01*
X143770891Y-143653364D01*
X143562502Y-143671654D01*
X143559571Y-143671876D01*
X143354523Y-143684985D01*
X143351588Y-143685138D01*
X143146284Y-143693383D01*
X143143342Y-143693466D01*
X142937960Y-143696835D01*
X142935015Y-143696849D01*
X142729594Y-143695339D01*
X142726646Y-143695282D01*
X142521360Y-143688891D01*
X142518412Y-143688764D01*
X142313302Y-143677488D01*
X142310353Y-143677291D01*
X142101626Y-143660817D01*
X142100161Y-143660692D01*
X140490972Y-143514477D01*
X140470106Y-143510763D01*
X140458211Y-143507576D01*
X140458209Y-143507576D01*
X140420626Y-143507576D01*
X140409404Y-143507067D01*
X140371986Y-143503666D01*
X140359854Y-143505764D01*
X140338733Y-143507576D01*
X139461051Y-143507576D01*
X139459521Y-143507567D01*
X139242480Y-143504889D01*
X139239423Y-143504813D01*
X139026448Y-143496929D01*
X139023400Y-143496779D01*
X138810743Y-143483653D01*
X138807753Y-143483432D01*
X138595480Y-143465068D01*
X138592440Y-143464767D01*
X138380756Y-143441189D01*
X138377724Y-143440813D01*
X138166641Y-143412021D01*
X138163619Y-143411571D01*
X137953229Y-143377574D01*
X137950217Y-143377049D01*
X137736929Y-143337164D01*
X137735398Y-143336868D01*
X135890945Y-142967886D01*
X135889616Y-142967612D01*
X135719776Y-142931699D01*
X135717224Y-142931132D01*
X135551200Y-142892351D01*
X135548657Y-142891728D01*
X135383604Y-142849480D01*
X135381071Y-142848803D01*
X135216971Y-142803082D01*
X135214448Y-142802350D01*
X135051435Y-142753187D01*
X135048924Y-142752401D01*
X134886901Y-142699762D01*
X134884402Y-142698921D01*
X134723551Y-142642854D01*
X134721068Y-142641958D01*
X134558236Y-142581283D01*
X134557034Y-142580828D01*
X133341731Y-142113579D01*
X133339656Y-142112760D01*
X133221473Y-142064864D01*
X133217472Y-142063160D01*
X133106185Y-142013447D01*
X133102260Y-142011611D01*
X132993014Y-141958141D01*
X132989164Y-141956173D01*
X132882023Y-141899009D01*
X132878236Y-141896903D01*
X132773220Y-141836065D01*
X132769547Y-141833850D01*
X132666877Y-141769485D01*
X132663281Y-141767143D01*
X132562932Y-141699245D01*
X132559421Y-141696779D01*
X132461547Y-141625459D01*
X132458142Y-141622886D01*
X132362842Y-141548219D01*
X132359484Y-141545492D01*
X132266824Y-141467527D01*
X132263562Y-141464683D01*
X132173637Y-141383495D01*
X132170472Y-141380536D01*
X132126741Y-141338188D01*
X132083374Y-141296193D01*
X132080317Y-141293127D01*
X132072879Y-141285402D01*
X131996084Y-141205646D01*
X131993179Y-141202521D01*
X131924621Y-141126134D01*
X131911965Y-141112032D01*
X131909118Y-141108746D01*
X131830977Y-141015284D01*
X131828238Y-141011888D01*
X131800494Y-140976227D01*
X131753183Y-140915414D01*
X131750605Y-140911979D01*
X131681456Y-140816444D01*
X131679039Y-140812982D01*
X131665296Y-140792566D01*
X131613192Y-140715161D01*
X131610929Y-140711673D01*
X131548538Y-140611825D01*
X131546405Y-140608278D01*
X131487531Y-140506533D01*
X131485490Y-140502864D01*
X131475141Y-140483495D01*
X131430175Y-140399335D01*
X131428268Y-140395615D01*
X131376513Y-140290324D01*
X131374728Y-140286532D01*
X131332114Y-140191886D01*
X131326608Y-140179657D01*
X131324955Y-140175813D01*
X131323973Y-140173420D01*
X131280465Y-140067350D01*
X131278944Y-140063453D01*
X131238142Y-139953544D01*
X131236751Y-139949593D01*
X131209526Y-139867899D01*
X131199685Y-139838372D01*
X131198431Y-139834385D01*
X131195417Y-139824205D01*
X131165105Y-139721837D01*
X131164009Y-139717892D01*
X131134474Y-139604151D01*
X131133496Y-139600101D01*
X131133383Y-139599597D01*
X131107818Y-139485373D01*
X131106970Y-139481260D01*
X131104322Y-139467211D01*
X131085157Y-139365542D01*
X131084454Y-139361428D01*
X131083531Y-139355418D01*
X131066548Y-139244811D01*
X131065983Y-139240659D01*
X131065589Y-139237349D01*
X131051392Y-139117949D01*
X131051162Y-139115863D01*
X131050780Y-139112103D01*
X129970753Y-128491935D01*
X129970120Y-128478653D01*
X129970158Y-128472106D01*
X129970160Y-128472099D01*
X129962865Y-128414030D01*
X129962535Y-128411124D01*
X129958304Y-128369523D01*
X129958250Y-128359976D01*
X129957966Y-128359988D01*
X129957630Y-128351869D01*
X129957629Y-128351866D01*
X129957630Y-128351863D01*
X129948862Y-128301444D01*
X129947998Y-128295664D01*
X129947590Y-128292415D01*
X129941627Y-128244938D01*
X129941625Y-128244934D01*
X129940897Y-128239134D01*
X129939595Y-128233295D01*
X129939596Y-128233290D01*
X129928453Y-128183293D01*
X129927327Y-128177605D01*
X129925353Y-128166253D01*
X129919784Y-128134220D01*
X129917643Y-128121906D01*
X129916178Y-128116534D01*
X129902707Y-128067128D01*
X129901310Y-128061489D01*
X129900686Y-128058687D01*
X129890163Y-128011463D01*
X129890161Y-128011460D01*
X129889091Y-128006655D01*
X129883625Y-127989762D01*
X129871722Y-127952977D01*
X129870087Y-127947491D01*
X129856584Y-127897963D01*
X129856582Y-127897959D01*
X129855397Y-127893613D01*
X129853742Y-127889209D01*
X129853742Y-127889207D01*
X129835657Y-127841087D01*
X129833771Y-127835686D01*
X129817961Y-127786822D01*
X129817960Y-127786821D01*
X129816704Y-127782937D01*
X129814983Y-127778932D01*
X129814983Y-127778929D01*
X129794677Y-127731663D01*
X129792558Y-127726399D01*
X129774444Y-127678196D01*
X129774442Y-127678194D01*
X129773115Y-127674661D01*
X129748893Y-127624754D01*
X129746529Y-127619586D01*
X129726191Y-127572242D01*
X129724831Y-127569076D01*
X129721472Y-127562894D01*
X129698455Y-127520527D01*
X129695858Y-127515473D01*
X129671963Y-127466237D01*
X129643509Y-127419124D01*
X129640695Y-127414215D01*
X129623066Y-127381767D01*
X129616043Y-127368839D01*
X129616042Y-127368838D01*
X129614641Y-127366259D01*
X129584205Y-127320677D01*
X129581185Y-127315925D01*
X129559913Y-127280704D01*
X129554449Y-127271656D01*
X129554448Y-127271655D01*
X129553044Y-127269330D01*
X129549444Y-127264434D01*
X129520655Y-127225276D01*
X129517440Y-127220688D01*
X129513989Y-127215520D01*
X129488703Y-127177650D01*
X129488701Y-127177648D01*
X129487282Y-127175523D01*
X129485589Y-127173425D01*
X129485588Y-127173423D01*
X129453037Y-127133093D01*
X129449635Y-127128677D01*
X129417523Y-127084999D01*
X129381487Y-127044244D01*
X129377889Y-127039986D01*
X129343864Y-126997829D01*
X129339718Y-126993544D01*
X129306107Y-126958804D01*
X129302331Y-126954721D01*
X129266463Y-126914157D01*
X129264770Y-126912558D01*
X129264769Y-126912555D01*
X129227021Y-126876886D01*
X129223092Y-126873002D01*
X129217520Y-126867243D01*
X129187012Y-126835710D01*
X129187010Y-126835709D01*
X129185444Y-126834090D01*
X129183725Y-126832606D01*
X129183725Y-126832605D01*
X129166341Y-126817594D01*
X129144439Y-126798681D01*
X129140317Y-126794957D01*
X129100962Y-126757769D01*
X129099180Y-126756364D01*
X129099179Y-126756363D01*
X129058413Y-126724233D01*
X129054133Y-126720701D01*
X129013090Y-126685259D01*
X128992184Y-126670253D01*
X128969094Y-126653678D01*
X128964684Y-126650360D01*
X128923918Y-126618230D01*
X128923916Y-126618229D01*
X128922019Y-126616734D01*
X128876635Y-126587152D01*
X128872036Y-126584005D01*
X128827838Y-126552278D01*
X128781139Y-126524755D01*
X128776392Y-126521812D01*
X128760445Y-126511418D01*
X128732971Y-126493511D01*
X128732969Y-126493510D01*
X128730710Y-126492038D01*
X128728461Y-126490846D01*
X128728460Y-126490845D01*
X128704754Y-126478281D01*
X128682709Y-126466598D01*
X128677818Y-126463862D01*
X128649575Y-126447217D01*
X128633231Y-126437585D01*
X128633229Y-126437584D01*
X128630731Y-126436112D01*
X128628279Y-126434952D01*
X128628278Y-126434951D01*
X128581533Y-126412835D01*
X128576515Y-126410320D01*
X128528082Y-126384652D01*
X128477726Y-126363582D01*
X128472561Y-126361281D01*
X128422814Y-126337745D01*
X128371408Y-126318955D01*
X128366116Y-126316882D01*
X128315156Y-126295559D01*
X128311872Y-126294527D01*
X128311870Y-126294526D01*
X128262711Y-126279082D01*
X128257321Y-126277252D01*
X128205200Y-126258201D01*
X128165719Y-126247779D01*
X128151843Y-126244116D01*
X128146344Y-126242528D01*
X128119873Y-126234212D01*
X128093121Y-126225809D01*
X128038907Y-126214166D01*
X128033297Y-126212824D01*
X127979089Y-126198514D01*
X127924069Y-126189362D01*
X127918381Y-126188279D01*
X127863228Y-126176434D01*
X127858342Y-126175855D01*
X127849834Y-126174847D01*
X127807464Y-126169827D01*
X127801713Y-126169008D01*
X127745702Y-126159693D01*
X127689289Y-126155691D01*
X127683479Y-126155141D01*
X127626722Y-126148418D01*
X127569755Y-126147074D01*
X127563908Y-126146798D01*
X127512879Y-126143179D01*
X127512878Y-126143179D01*
X127512877Y-126143179D01*
X127504769Y-126143667D01*
X127504766Y-126143617D01*
X127490065Y-126144910D01*
X127456432Y-126144394D01*
X127455413Y-126144375D01*
X127428291Y-126143735D01*
X127392003Y-126142880D01*
X127392000Y-126142880D01*
X127383914Y-126142690D01*
X127383917Y-126142554D01*
X127380547Y-126142655D01*
X127354349Y-126141449D01*
X127350555Y-126141216D01*
X127307706Y-126137925D01*
X127303931Y-126137576D01*
X127291305Y-126136216D01*
X127261230Y-126132975D01*
X127257475Y-126132513D01*
X127214838Y-126126594D01*
X127211127Y-126126021D01*
X127168704Y-126118802D01*
X127164969Y-126118107D01*
X127122809Y-126109596D01*
X127119112Y-126108791D01*
X127072388Y-126097861D01*
X127070616Y-126097432D01*
X123643156Y-125240623D01*
X123631531Y-125237104D01*
X122516348Y-124838905D01*
X122514422Y-124838199D01*
X122273761Y-124747750D01*
X122269956Y-124746248D01*
X122037616Y-124650067D01*
X122033869Y-124648443D01*
X121805209Y-124544837D01*
X121801524Y-124543094D01*
X121576650Y-124432155D01*
X121573027Y-124430293D01*
X121352188Y-124312173D01*
X121348635Y-124310197D01*
X121131928Y-124184982D01*
X121128463Y-124182903D01*
X120916090Y-124050724D01*
X120912679Y-124048522D01*
X120704825Y-123909512D01*
X120701487Y-123907200D01*
X120498264Y-123761435D01*
X120495003Y-123759014D01*
X120296635Y-123606653D01*
X120293455Y-123604127D01*
X120100048Y-123445240D01*
X120096950Y-123442609D01*
X119908703Y-123277335D01*
X119905744Y-123274649D01*
X119722826Y-123103109D01*
X119719907Y-123100280D01*
X119684919Y-123065239D01*
X119542511Y-122922613D01*
X119539701Y-122919706D01*
X119367906Y-122735941D01*
X119365207Y-122732956D01*
X119364253Y-122731866D01*
X119198529Y-122542456D01*
X119196181Y-122539691D01*
X119140485Y-122472133D01*
X119071838Y-122388867D01*
X119069892Y-122386443D01*
X118948932Y-122231772D01*
X118946999Y-122229234D01*
X118884638Y-122145121D01*
X118830141Y-122071615D01*
X118828328Y-122069102D01*
X118715639Y-121908646D01*
X118713895Y-121906094D01*
X118605387Y-121742835D01*
X118603741Y-121740288D01*
X118499558Y-121574457D01*
X118497911Y-121571758D01*
X118398078Y-121403419D01*
X118396491Y-121400664D01*
X118300994Y-121229796D01*
X118299479Y-121227002D01*
X118208410Y-121053776D01*
X118206967Y-121050943D01*
X118120377Y-120875458D01*
X118119007Y-120872590D01*
X118061192Y-120747434D01*
X118036852Y-120694743D01*
X118035577Y-120691886D01*
X117958019Y-120512014D01*
X117956828Y-120509154D01*
X117883816Y-120327112D01*
X117882696Y-120324211D01*
X117814353Y-120140278D01*
X117813282Y-120137277D01*
X117749633Y-119951487D01*
X117748638Y-119948455D01*
X117688528Y-119757070D01*
X117688060Y-119755547D01*
X117108474Y-117823732D01*
X117107964Y-117821987D01*
X117088155Y-117752262D01*
X117037657Y-117574515D01*
X117036744Y-117571113D01*
X116974856Y-117326271D01*
X116974052Y-117322883D01*
X116957878Y-117249996D01*
X147194435Y-117249996D01*
X147194435Y-117250003D01*
X147214630Y-117429249D01*
X147214631Y-117429254D01*
X147274211Y-117599523D01*
X147370184Y-117752262D01*
X147497738Y-117879816D01*
X147650478Y-117975789D01*
X147820745Y-118035368D01*
X147907669Y-118045161D01*
X147972080Y-118072226D01*
X147981464Y-118080699D01*
X153131284Y-123230520D01*
X153131286Y-123230521D01*
X153131290Y-123230524D01*
X153212412Y-123277359D01*
X153268216Y-123309577D01*
X153420943Y-123350501D01*
X153420945Y-123350501D01*
X153586654Y-123350501D01*
X153586670Y-123350500D01*
X160773742Y-123350500D01*
X160840781Y-123370185D01*
X160865891Y-123391527D01*
X160894128Y-123422887D01*
X160894135Y-123422893D01*
X161047265Y-123534148D01*
X161047270Y-123534151D01*
X161220192Y-123611142D01*
X161220197Y-123611144D01*
X161405354Y-123650500D01*
X161405355Y-123650500D01*
X161594644Y-123650500D01*
X161594646Y-123650500D01*
X161779803Y-123611144D01*
X161952730Y-123534151D01*
X162105871Y-123422888D01*
X162232533Y-123282216D01*
X162327179Y-123118284D01*
X162385674Y-122938256D01*
X162405460Y-122750000D01*
X162385674Y-122561744D01*
X162327179Y-122381716D01*
X162232533Y-122217784D01*
X162105871Y-122077112D01*
X162105863Y-122077106D01*
X161952734Y-121965851D01*
X161952729Y-121965848D01*
X161779807Y-121888857D01*
X161779802Y-121888855D01*
X161634001Y-121857865D01*
X161594646Y-121849500D01*
X161405354Y-121849500D01*
X161372897Y-121856398D01*
X161220197Y-121888855D01*
X161220192Y-121888857D01*
X161047270Y-121965848D01*
X161047265Y-121965851D01*
X160894135Y-122077106D01*
X160894128Y-122077112D01*
X160865891Y-122108473D01*
X160806405Y-122145121D01*
X160773742Y-122149500D01*
X153800098Y-122149500D01*
X153733059Y-122129815D01*
X153712417Y-122113181D01*
X148830700Y-117231465D01*
X148797215Y-117170142D01*
X148795163Y-117157686D01*
X148785368Y-117070745D01*
X148725789Y-116900478D01*
X148629816Y-116747738D01*
X148502262Y-116620184D01*
X148426469Y-116572560D01*
X148349523Y-116524211D01*
X148179254Y-116464631D01*
X148179249Y-116464630D01*
X148000004Y-116444435D01*
X147999996Y-116444435D01*
X147820750Y-116464630D01*
X147820745Y-116464631D01*
X147650476Y-116524211D01*
X147497737Y-116620184D01*
X147370184Y-116747737D01*
X147274211Y-116900476D01*
X147214631Y-117070745D01*
X147214630Y-117070750D01*
X147194435Y-117249996D01*
X116957878Y-117249996D01*
X116919358Y-117076406D01*
X116918640Y-117072923D01*
X116898690Y-116968713D01*
X116871202Y-116825126D01*
X116870577Y-116821583D01*
X116855123Y-116725789D01*
X116830401Y-116572543D01*
X116829879Y-116568974D01*
X116827018Y-116547215D01*
X116796988Y-116318798D01*
X116796570Y-116315211D01*
X116790159Y-116252262D01*
X116770989Y-116064049D01*
X116770685Y-116060553D01*
X116752108Y-115803884D01*
X116751994Y-115802107D01*
X116748988Y-115749996D01*
X116626392Y-113624996D01*
X137819435Y-113624996D01*
X137819435Y-113625003D01*
X137839630Y-113804249D01*
X137839631Y-113804254D01*
X137899211Y-113974523D01*
X137995185Y-114127263D01*
X137997445Y-114130097D01*
X137998334Y-114132275D01*
X137998889Y-114133158D01*
X137998734Y-114133255D01*
X138023855Y-114194783D01*
X138024500Y-114207412D01*
X138024500Y-115636859D01*
X138024499Y-115636877D01*
X138024499Y-115802583D01*
X138024498Y-115802583D01*
X138024499Y-115802586D01*
X138065423Y-115955314D01*
X138065424Y-115955316D01*
X138065423Y-115955316D01*
X138080703Y-115981780D01*
X138080705Y-115981782D01*
X138080706Y-115981784D01*
X138091225Y-116000003D01*
X138144479Y-116092244D01*
X138263349Y-116211114D01*
X138263355Y-116211119D01*
X139016610Y-116964374D01*
X139016620Y-116964385D01*
X139020950Y-116968715D01*
X139020951Y-116968716D01*
X139132755Y-117080520D01*
X139132757Y-117080521D01*
X139132761Y-117080524D01*
X139213539Y-117127161D01*
X139213540Y-117127161D01*
X139269686Y-117159577D01*
X139422414Y-117200500D01*
X139580528Y-117200500D01*
X140813331Y-117200500D01*
X140813347Y-117200501D01*
X140820943Y-117200501D01*
X140979054Y-117200501D01*
X140979057Y-117200501D01*
X141131785Y-117159577D01*
X141187931Y-117127161D01*
X141187932Y-117127161D01*
X141268709Y-117080524D01*
X141268708Y-117080524D01*
X141268716Y-117080520D01*
X141380520Y-116968716D01*
X141380520Y-116968714D01*
X141390724Y-116958511D01*
X141390728Y-116958506D01*
X141768535Y-116580698D01*
X141829856Y-116547215D01*
X141842311Y-116545163D01*
X141929255Y-116535368D01*
X142099522Y-116475789D01*
X142252262Y-116379816D01*
X142379816Y-116252262D01*
X142475789Y-116099522D01*
X142535368Y-115929255D01*
X142535369Y-115929249D01*
X142555565Y-115750003D01*
X142555565Y-115749996D01*
X142535369Y-115570750D01*
X142535368Y-115570745D01*
X142500727Y-115471746D01*
X142475789Y-115400478D01*
X142379816Y-115247738D01*
X142252262Y-115120184D01*
X142099523Y-115024211D01*
X141929254Y-114964631D01*
X141929249Y-114964630D01*
X141750004Y-114944435D01*
X141749996Y-114944435D01*
X141570750Y-114964630D01*
X141570745Y-114964631D01*
X141400476Y-115024211D01*
X141247737Y-115120184D01*
X141120184Y-115247737D01*
X141024210Y-115400478D01*
X140964630Y-115570750D01*
X140954837Y-115657668D01*
X140927770Y-115722082D01*
X140919299Y-115731465D01*
X140687582Y-115963182D01*
X140626262Y-115996666D01*
X140599903Y-115999500D01*
X139801568Y-115999500D01*
X139734529Y-115979815D01*
X139713887Y-115963181D01*
X139261819Y-115511113D01*
X139228334Y-115449790D01*
X139225500Y-115423432D01*
X139225500Y-114207412D01*
X139245185Y-114140373D01*
X139252555Y-114130097D01*
X139254810Y-114127267D01*
X139254816Y-114127262D01*
X139350789Y-113974522D01*
X139410368Y-113804255D01*
X139430565Y-113625000D01*
X139410368Y-113445745D01*
X139350789Y-113275478D01*
X139254816Y-113122738D01*
X139127262Y-112995184D01*
X139096395Y-112975789D01*
X138974523Y-112899211D01*
X138804254Y-112839631D01*
X138804249Y-112839630D01*
X138625004Y-112819435D01*
X138624996Y-112819435D01*
X138445750Y-112839630D01*
X138445745Y-112839631D01*
X138275476Y-112899211D01*
X138122737Y-112995184D01*
X137995184Y-113122737D01*
X137899211Y-113275476D01*
X137839631Y-113445745D01*
X137839630Y-113445750D01*
X137819435Y-113624996D01*
X116626392Y-113624996D01*
X116547065Y-112249996D01*
X139944435Y-112249996D01*
X139944435Y-112250003D01*
X139964630Y-112429249D01*
X139964631Y-112429254D01*
X140024211Y-112599523D01*
X140120184Y-112752262D01*
X140247738Y-112879816D01*
X140400478Y-112975789D01*
X140570745Y-113035368D01*
X140657669Y-113045161D01*
X140722080Y-113072226D01*
X140731465Y-113080700D01*
X143061188Y-115410423D01*
X143094673Y-115471746D01*
X143089689Y-115541438D01*
X143078501Y-115564076D01*
X143024211Y-115650476D01*
X142964631Y-115820745D01*
X142964630Y-115820750D01*
X142944435Y-115999996D01*
X142944435Y-116000003D01*
X142964630Y-116179249D01*
X142964631Y-116179254D01*
X143024211Y-116349523D01*
X143076661Y-116432996D01*
X143120184Y-116502262D01*
X143247738Y-116629816D01*
X143400478Y-116725789D01*
X143463202Y-116747737D01*
X143570745Y-116785368D01*
X143570750Y-116785369D01*
X143749996Y-116805565D01*
X143750000Y-116805565D01*
X143750004Y-116805565D01*
X143929249Y-116785369D01*
X143929252Y-116785368D01*
X143929255Y-116785368D01*
X144099522Y-116725789D01*
X144252262Y-116629816D01*
X144379816Y-116502262D01*
X144475789Y-116349522D01*
X144535368Y-116179255D01*
X144535369Y-116179249D01*
X144555565Y-116000003D01*
X144555565Y-115999996D01*
X144535369Y-115820750D01*
X144535368Y-115820745D01*
X144510612Y-115749996D01*
X144475789Y-115650478D01*
X144379816Y-115497738D01*
X144379814Y-115497736D01*
X144379813Y-115497734D01*
X144377550Y-115494896D01*
X144376659Y-115492715D01*
X144376111Y-115491842D01*
X144376264Y-115491745D01*
X144351144Y-115430209D01*
X144350500Y-115417587D01*
X144350500Y-115339060D01*
X144350501Y-115339047D01*
X144350501Y-115170944D01*
X144309576Y-115018214D01*
X144309573Y-115018209D01*
X144230524Y-114881290D01*
X144230518Y-114881282D01*
X141580700Y-112231465D01*
X141547215Y-112170142D01*
X141545163Y-112157686D01*
X141535368Y-112070745D01*
X141475789Y-111900478D01*
X141379816Y-111747738D01*
X141252262Y-111620184D01*
X141099523Y-111524211D01*
X140929254Y-111464631D01*
X140929249Y-111464630D01*
X140750004Y-111444435D01*
X140749996Y-111444435D01*
X140570750Y-111464630D01*
X140570745Y-111464631D01*
X140400476Y-111524211D01*
X140247737Y-111620184D01*
X140120184Y-111747737D01*
X140024211Y-111900476D01*
X139964631Y-112070745D01*
X139964630Y-112070750D01*
X139944435Y-112249996D01*
X116547065Y-112249996D01*
X116279462Y-107611554D01*
X118181998Y-107611554D01*
X118222923Y-107764286D01*
X118237354Y-107789279D01*
X118237355Y-107789284D01*
X118237357Y-107789284D01*
X118272700Y-107850501D01*
X118301979Y-107901214D01*
X118301981Y-107901217D01*
X118420849Y-108020085D01*
X118420855Y-108020090D01*
X119765139Y-109364374D01*
X119765149Y-109364385D01*
X119769479Y-109368715D01*
X119769480Y-109368716D01*
X119881284Y-109480520D01*
X119881286Y-109480521D01*
X119881290Y-109480524D01*
X120018209Y-109559573D01*
X120018216Y-109559577D01*
X120130019Y-109589534D01*
X120170942Y-109600500D01*
X120170943Y-109600500D01*
X124413331Y-109600500D01*
X124413347Y-109600501D01*
X124420943Y-109600501D01*
X124579054Y-109600501D01*
X124579057Y-109600501D01*
X124731785Y-109559577D01*
X124781904Y-109530639D01*
X124868716Y-109480520D01*
X124980520Y-109368716D01*
X124980520Y-109368714D01*
X124990728Y-109358507D01*
X124990729Y-109358504D01*
X125667820Y-108681414D01*
X125729142Y-108647930D01*
X125798834Y-108652914D01*
X125854767Y-108694786D01*
X125879184Y-108760250D01*
X125879500Y-108769096D01*
X125879500Y-109367870D01*
X125879501Y-109367876D01*
X125885908Y-109427483D01*
X125936202Y-109562328D01*
X125936206Y-109562335D01*
X126022452Y-109677544D01*
X126022455Y-109677547D01*
X126137664Y-109763793D01*
X126137671Y-109763797D01*
X126272517Y-109814091D01*
X126272516Y-109814091D01*
X126279444Y-109814835D01*
X126332127Y-109820500D01*
X128027872Y-109820499D01*
X128087483Y-109814091D01*
X128222331Y-109763796D01*
X128337546Y-109677546D01*
X128423796Y-109562331D01*
X128474091Y-109427483D01*
X128477862Y-109392401D01*
X128504599Y-109327855D01*
X128561990Y-109288006D01*
X128631816Y-109285511D01*
X128691905Y-109321163D01*
X128702725Y-109334535D01*
X128719510Y-109358507D01*
X128719956Y-109359143D01*
X128880858Y-109520045D01*
X128880861Y-109520047D01*
X129067266Y-109650568D01*
X129273504Y-109746739D01*
X129493308Y-109805635D01*
X129655230Y-109819801D01*
X129719998Y-109825468D01*
X129720000Y-109825468D01*
X129720002Y-109825468D01*
X129776807Y-109820498D01*
X129946692Y-109805635D01*
X130166496Y-109746739D01*
X130372734Y-109650568D01*
X130559139Y-109520047D01*
X130720047Y-109359139D01*
X130850568Y-109172734D01*
X130877618Y-109114724D01*
X130923790Y-109062285D01*
X130990983Y-109043133D01*
X131057865Y-109063348D01*
X131102382Y-109114725D01*
X131129429Y-109172728D01*
X131129432Y-109172734D01*
X131259954Y-109359141D01*
X131420858Y-109520045D01*
X131420861Y-109520047D01*
X131607266Y-109650568D01*
X131813504Y-109746739D01*
X132033308Y-109805635D01*
X132195230Y-109819801D01*
X132259998Y-109825468D01*
X132260000Y-109825468D01*
X132260002Y-109825468D01*
X132316807Y-109820498D01*
X132486692Y-109805635D01*
X132706496Y-109746739D01*
X132912734Y-109650568D01*
X133099139Y-109520047D01*
X133260047Y-109359139D01*
X133390568Y-109172734D01*
X133417618Y-109114724D01*
X133463790Y-109062285D01*
X133530983Y-109043133D01*
X133597865Y-109063348D01*
X133642382Y-109114725D01*
X133669429Y-109172728D01*
X133669432Y-109172734D01*
X133799954Y-109359141D01*
X133960858Y-109520045D01*
X133960861Y-109520047D01*
X134147266Y-109650568D01*
X134353504Y-109746739D01*
X134573308Y-109805635D01*
X134735230Y-109819801D01*
X134799998Y-109825468D01*
X134800000Y-109825468D01*
X134800002Y-109825468D01*
X134856807Y-109820498D01*
X135026692Y-109805635D01*
X135246496Y-109746739D01*
X135452734Y-109650568D01*
X135639139Y-109520047D01*
X135800047Y-109359139D01*
X135930568Y-109172734D01*
X135957618Y-109114724D01*
X136003790Y-109062285D01*
X136070983Y-109043133D01*
X136137865Y-109063348D01*
X136182382Y-109114725D01*
X136209429Y-109172728D01*
X136209432Y-109172734D01*
X136339954Y-109359141D01*
X136500858Y-109520045D01*
X136500861Y-109520047D01*
X136687266Y-109650568D01*
X136893504Y-109746739D01*
X137113308Y-109805635D01*
X137275230Y-109819801D01*
X137339998Y-109825468D01*
X137340000Y-109825468D01*
X137340002Y-109825468D01*
X137396807Y-109820498D01*
X137566692Y-109805635D01*
X137786496Y-109746739D01*
X137992734Y-109650568D01*
X138179139Y-109520047D01*
X138340047Y-109359139D01*
X138470568Y-109172734D01*
X138497618Y-109114724D01*
X138543790Y-109062285D01*
X138610983Y-109043133D01*
X138677865Y-109063348D01*
X138722382Y-109114725D01*
X138749429Y-109172728D01*
X138749432Y-109172734D01*
X138879954Y-109359141D01*
X139040858Y-109520045D01*
X139040861Y-109520047D01*
X139227266Y-109650568D01*
X139433504Y-109746739D01*
X139653308Y-109805635D01*
X139815230Y-109819801D01*
X139879998Y-109825468D01*
X139880000Y-109825468D01*
X139880002Y-109825468D01*
X139936807Y-109820498D01*
X140106692Y-109805635D01*
X140326496Y-109746739D01*
X140532734Y-109650568D01*
X140719139Y-109520047D01*
X140880047Y-109359139D01*
X141010568Y-109172734D01*
X141037618Y-109114724D01*
X141083790Y-109062285D01*
X141150983Y-109043133D01*
X141217865Y-109063348D01*
X141262382Y-109114725D01*
X141289429Y-109172728D01*
X141289432Y-109172734D01*
X141419954Y-109359141D01*
X141580858Y-109520045D01*
X141580861Y-109520047D01*
X141767266Y-109650568D01*
X141973504Y-109746739D01*
X142193308Y-109805635D01*
X142355230Y-109819801D01*
X142419998Y-109825468D01*
X142420000Y-109825468D01*
X142420002Y-109825468D01*
X142476807Y-109820498D01*
X142646692Y-109805635D01*
X142866496Y-109746739D01*
X143072734Y-109650568D01*
X143259139Y-109520047D01*
X143420047Y-109359139D01*
X143550568Y-109172734D01*
X143646739Y-108966496D01*
X143705635Y-108746692D01*
X143725468Y-108520000D01*
X143705635Y-108293308D01*
X143646739Y-108073504D01*
X143550568Y-107867266D01*
X143420047Y-107680861D01*
X143420045Y-107680858D01*
X143259141Y-107519954D01*
X143072734Y-107389432D01*
X143072728Y-107389429D01*
X143014725Y-107362382D01*
X142962285Y-107316210D01*
X142943133Y-107249017D01*
X142963348Y-107182135D01*
X143014725Y-107137618D01*
X143072734Y-107110568D01*
X143259139Y-106980047D01*
X143420047Y-106819139D01*
X143550568Y-106632734D01*
X143577618Y-106574724D01*
X143623790Y-106522285D01*
X143690983Y-106503133D01*
X143757865Y-106523348D01*
X143802382Y-106574725D01*
X143829429Y-106632728D01*
X143829432Y-106632734D01*
X143959954Y-106819141D01*
X144120858Y-106980045D01*
X144120861Y-106980047D01*
X144307266Y-107110568D01*
X144513504Y-107206739D01*
X144733308Y-107265635D01*
X144895230Y-107279801D01*
X144959998Y-107285468D01*
X144960000Y-107285468D01*
X144960002Y-107285468D01*
X145016673Y-107280509D01*
X145186692Y-107265635D01*
X145406496Y-107206739D01*
X145612734Y-107110568D01*
X145799139Y-106980047D01*
X145960047Y-106819139D01*
X146090568Y-106632734D01*
X146117618Y-106574724D01*
X146163790Y-106522285D01*
X146230983Y-106503133D01*
X146297865Y-106523348D01*
X146342382Y-106574725D01*
X146369429Y-106632728D01*
X146369432Y-106632734D01*
X146499954Y-106819141D01*
X146660858Y-106980045D01*
X146660861Y-106980047D01*
X146847266Y-107110568D01*
X147053504Y-107206739D01*
X147273308Y-107265635D01*
X147435230Y-107279801D01*
X147499998Y-107285468D01*
X147500000Y-107285468D01*
X147500002Y-107285468D01*
X147556673Y-107280509D01*
X147726692Y-107265635D01*
X147946496Y-107206739D01*
X148152734Y-107110568D01*
X148339139Y-106980047D01*
X148500047Y-106819139D01*
X148630568Y-106632734D01*
X148657618Y-106574724D01*
X148703790Y-106522285D01*
X148770983Y-106503133D01*
X148837865Y-106523348D01*
X148882382Y-106574725D01*
X148909429Y-106632728D01*
X148909432Y-106632734D01*
X149039954Y-106819141D01*
X149200858Y-106980045D01*
X149200861Y-106980047D01*
X149387266Y-107110568D01*
X149593504Y-107206739D01*
X149813308Y-107265635D01*
X149975230Y-107279801D01*
X150039998Y-107285468D01*
X150040000Y-107285468D01*
X150040002Y-107285468D01*
X150096673Y-107280509D01*
X150266692Y-107265635D01*
X150486496Y-107206739D01*
X150692734Y-107110568D01*
X150879139Y-106980047D01*
X151040047Y-106819139D01*
X151170568Y-106632734D01*
X151197618Y-106574724D01*
X151243790Y-106522285D01*
X151310983Y-106503133D01*
X151377865Y-106523348D01*
X151422382Y-106574725D01*
X151449429Y-106632728D01*
X151449432Y-106632734D01*
X151579954Y-106819141D01*
X151740858Y-106980045D01*
X151740861Y-106980047D01*
X151927266Y-107110568D01*
X151985275Y-107137618D01*
X152037714Y-107183791D01*
X152056866Y-107250984D01*
X152036650Y-107317865D01*
X151985275Y-107362382D01*
X151927267Y-107389431D01*
X151927265Y-107389432D01*
X151740858Y-107519954D01*
X151579954Y-107680858D01*
X151449432Y-107867265D01*
X151449431Y-107867267D01*
X151353261Y-108073502D01*
X151353258Y-108073511D01*
X151294366Y-108293302D01*
X151294364Y-108293313D01*
X151274532Y-108519998D01*
X151274532Y-108520001D01*
X151294364Y-108746686D01*
X151294366Y-108746697D01*
X151353258Y-108966488D01*
X151353261Y-108966497D01*
X151449431Y-109172732D01*
X151449432Y-109172734D01*
X151579954Y-109359141D01*
X151740858Y-109520045D01*
X151740861Y-109520047D01*
X151927266Y-109650568D01*
X152133504Y-109746739D01*
X152353308Y-109805635D01*
X152515230Y-109819801D01*
X152579998Y-109825468D01*
X152580000Y-109825468D01*
X152580002Y-109825468D01*
X152636807Y-109820498D01*
X152806692Y-109805635D01*
X153026496Y-109746739D01*
X153232734Y-109650568D01*
X153419139Y-109520047D01*
X153580047Y-109359139D01*
X153710568Y-109172734D01*
X153737618Y-109114724D01*
X153783790Y-109062285D01*
X153850983Y-109043133D01*
X153917865Y-109063348D01*
X153962382Y-109114725D01*
X153989429Y-109172728D01*
X153989432Y-109172734D01*
X154119954Y-109359141D01*
X154280858Y-109520045D01*
X154280861Y-109520047D01*
X154467266Y-109650568D01*
X154673504Y-109746739D01*
X154893308Y-109805635D01*
X155055230Y-109819801D01*
X155119998Y-109825468D01*
X155120000Y-109825468D01*
X155120002Y-109825468D01*
X155176807Y-109820498D01*
X155346692Y-109805635D01*
X155566496Y-109746739D01*
X155772734Y-109650568D01*
X155959139Y-109520047D01*
X156120047Y-109359139D01*
X156250568Y-109172734D01*
X156277618Y-109114724D01*
X156323790Y-109062285D01*
X156390983Y-109043133D01*
X156457865Y-109063348D01*
X156502382Y-109114725D01*
X156529429Y-109172728D01*
X156529432Y-109172734D01*
X156659954Y-109359141D01*
X156820858Y-109520045D01*
X156820861Y-109520047D01*
X157007266Y-109650568D01*
X157213504Y-109746739D01*
X157433308Y-109805635D01*
X157595230Y-109819801D01*
X157659998Y-109825468D01*
X157660000Y-109825468D01*
X157660002Y-109825468D01*
X157716807Y-109820498D01*
X157886692Y-109805635D01*
X158106496Y-109746739D01*
X158312734Y-109650568D01*
X158499139Y-109520047D01*
X158660047Y-109359139D01*
X158790568Y-109172734D01*
X158817618Y-109114724D01*
X158863790Y-109062285D01*
X158930983Y-109043133D01*
X158997865Y-109063348D01*
X159042382Y-109114725D01*
X159069429Y-109172728D01*
X159069432Y-109172734D01*
X159199954Y-109359141D01*
X159360858Y-109520045D01*
X159360861Y-109520047D01*
X159547266Y-109650568D01*
X159753504Y-109746739D01*
X159973308Y-109805635D01*
X160135230Y-109819801D01*
X160199998Y-109825468D01*
X160200000Y-109825468D01*
X160200002Y-109825468D01*
X160256807Y-109820498D01*
X160426692Y-109805635D01*
X160646496Y-109746739D01*
X160852734Y-109650568D01*
X161039139Y-109520047D01*
X161200047Y-109359139D01*
X161330568Y-109172734D01*
X161357618Y-109114724D01*
X161403790Y-109062285D01*
X161470983Y-109043133D01*
X161537865Y-109063348D01*
X161582382Y-109114725D01*
X161609429Y-109172728D01*
X161609432Y-109172734D01*
X161739954Y-109359141D01*
X161900858Y-109520045D01*
X161900861Y-109520047D01*
X162087266Y-109650568D01*
X162293504Y-109746739D01*
X162513308Y-109805635D01*
X162675230Y-109819801D01*
X162739998Y-109825468D01*
X162740000Y-109825468D01*
X162740002Y-109825468D01*
X162796807Y-109820498D01*
X162966692Y-109805635D01*
X163186496Y-109746739D01*
X163392734Y-109650568D01*
X163579139Y-109520047D01*
X163740047Y-109359139D01*
X163870568Y-109172734D01*
X163897618Y-109114724D01*
X163943790Y-109062285D01*
X164010983Y-109043133D01*
X164077865Y-109063348D01*
X164122382Y-109114725D01*
X164149429Y-109172728D01*
X164149432Y-109172734D01*
X164279954Y-109359141D01*
X164440858Y-109520045D01*
X164440861Y-109520047D01*
X164627266Y-109650568D01*
X164833504Y-109746739D01*
X165053308Y-109805635D01*
X165215230Y-109819801D01*
X165279998Y-109825468D01*
X165280000Y-109825468D01*
X165280002Y-109825468D01*
X165336807Y-109820498D01*
X165506692Y-109805635D01*
X165726496Y-109746739D01*
X165932734Y-109650568D01*
X166119139Y-109520047D01*
X166280047Y-109359139D01*
X166410568Y-109172734D01*
X166437618Y-109114724D01*
X166483790Y-109062285D01*
X166550983Y-109043133D01*
X166617865Y-109063348D01*
X166662382Y-109114725D01*
X166689429Y-109172728D01*
X166689432Y-109172734D01*
X166819954Y-109359141D01*
X166980858Y-109520045D01*
X166980861Y-109520047D01*
X167167266Y-109650568D01*
X167373504Y-109746739D01*
X167593308Y-109805635D01*
X167755230Y-109819801D01*
X167819998Y-109825468D01*
X167820000Y-109825468D01*
X167820002Y-109825468D01*
X167876807Y-109820498D01*
X168046692Y-109805635D01*
X168266496Y-109746739D01*
X168472734Y-109650568D01*
X168659139Y-109520047D01*
X168820047Y-109359139D01*
X168950568Y-109172734D01*
X168977618Y-109114724D01*
X169023790Y-109062285D01*
X169090983Y-109043133D01*
X169157865Y-109063348D01*
X169202382Y-109114725D01*
X169229429Y-109172728D01*
X169229432Y-109172734D01*
X169359954Y-109359141D01*
X169520858Y-109520045D01*
X169520861Y-109520047D01*
X169707266Y-109650568D01*
X169913504Y-109746739D01*
X170133308Y-109805635D01*
X170295230Y-109819801D01*
X170359998Y-109825468D01*
X170360000Y-109825468D01*
X170360002Y-109825468D01*
X170416807Y-109820498D01*
X170586692Y-109805635D01*
X170806496Y-109746739D01*
X171012734Y-109650568D01*
X171199139Y-109520047D01*
X171360047Y-109359139D01*
X171490568Y-109172734D01*
X171517618Y-109114724D01*
X171563790Y-109062285D01*
X171630983Y-109043133D01*
X171697865Y-109063348D01*
X171742382Y-109114725D01*
X171769429Y-109172728D01*
X171769432Y-109172734D01*
X171899954Y-109359141D01*
X172060858Y-109520045D01*
X172060861Y-109520047D01*
X172247266Y-109650568D01*
X172453504Y-109746739D01*
X172673308Y-109805635D01*
X172835230Y-109819801D01*
X172899998Y-109825468D01*
X172900000Y-109825468D01*
X172900002Y-109825468D01*
X172956807Y-109820498D01*
X173126692Y-109805635D01*
X173346496Y-109746739D01*
X173552734Y-109650568D01*
X173739139Y-109520047D01*
X173900047Y-109359139D01*
X174030568Y-109172734D01*
X174057618Y-109114724D01*
X174103790Y-109062285D01*
X174170983Y-109043133D01*
X174237865Y-109063348D01*
X174282382Y-109114725D01*
X174309429Y-109172728D01*
X174309432Y-109172734D01*
X174439954Y-109359141D01*
X174600858Y-109520045D01*
X174600861Y-109520047D01*
X174787266Y-109650568D01*
X174993504Y-109746739D01*
X175213308Y-109805635D01*
X175375230Y-109819801D01*
X175439998Y-109825468D01*
X175440000Y-109825468D01*
X175440002Y-109825468D01*
X175496807Y-109820498D01*
X175666692Y-109805635D01*
X175886496Y-109746739D01*
X176092734Y-109650568D01*
X176279139Y-109520047D01*
X176440047Y-109359139D01*
X176570568Y-109172734D01*
X176666739Y-108966496D01*
X176725635Y-108746692D01*
X176745468Y-108520000D01*
X176725635Y-108293308D01*
X176666739Y-108073504D01*
X176570568Y-107867266D01*
X176440047Y-107680861D01*
X176440045Y-107680858D01*
X176279141Y-107519954D01*
X176092734Y-107389432D01*
X176092728Y-107389429D01*
X176034725Y-107362382D01*
X175982285Y-107316210D01*
X175963133Y-107249017D01*
X175983348Y-107182135D01*
X176034725Y-107137618D01*
X176092734Y-107110568D01*
X176279139Y-106980047D01*
X176440047Y-106819139D01*
X176570568Y-106632734D01*
X176666739Y-106426496D01*
X176725635Y-106206692D01*
X176745468Y-105980000D01*
X176725635Y-105753308D01*
X176666739Y-105533504D01*
X176570568Y-105327266D01*
X176440047Y-105140861D01*
X176440045Y-105140858D01*
X176279141Y-104979954D01*
X176092734Y-104849432D01*
X176092732Y-104849431D01*
X175886497Y-104753261D01*
X175886488Y-104753258D01*
X175666697Y-104694366D01*
X175666693Y-104694365D01*
X175666692Y-104694365D01*
X175666691Y-104694364D01*
X175666686Y-104694364D01*
X175440002Y-104674532D01*
X175439998Y-104674532D01*
X175213313Y-104694364D01*
X175213302Y-104694366D01*
X174993511Y-104753258D01*
X174993502Y-104753261D01*
X174787267Y-104849431D01*
X174787265Y-104849432D01*
X174600858Y-104979954D01*
X174439954Y-105140858D01*
X174309432Y-105327265D01*
X174309431Y-105327267D01*
X174282382Y-105385275D01*
X174236209Y-105437714D01*
X174169016Y-105456866D01*
X174102135Y-105436650D01*
X174057618Y-105385275D01*
X174030568Y-105327267D01*
X174030567Y-105327265D01*
X173900045Y-105140858D01*
X173739141Y-104979954D01*
X173552734Y-104849432D01*
X173552732Y-104849431D01*
X173346497Y-104753261D01*
X173346488Y-104753258D01*
X173126697Y-104694366D01*
X173126693Y-104694365D01*
X173126692Y-104694365D01*
X173126691Y-104694364D01*
X173126686Y-104694364D01*
X172900002Y-104674532D01*
X172899998Y-104674532D01*
X172673313Y-104694364D01*
X172673302Y-104694366D01*
X172453511Y-104753258D01*
X172453502Y-104753261D01*
X172247267Y-104849431D01*
X172247265Y-104849432D01*
X172060858Y-104979954D01*
X171899954Y-105140858D01*
X171769432Y-105327265D01*
X171769431Y-105327267D01*
X171742382Y-105385275D01*
X171696209Y-105437714D01*
X171629016Y-105456866D01*
X171562135Y-105436650D01*
X171517618Y-105385275D01*
X171490568Y-105327267D01*
X171490567Y-105327265D01*
X171360045Y-105140858D01*
X171199141Y-104979954D01*
X171012734Y-104849432D01*
X171012732Y-104849431D01*
X170806497Y-104753261D01*
X170806488Y-104753258D01*
X170586697Y-104694366D01*
X170586693Y-104694365D01*
X170586692Y-104694365D01*
X170586691Y-104694364D01*
X170586686Y-104694364D01*
X170360002Y-104674532D01*
X170359998Y-104674532D01*
X170133313Y-104694364D01*
X170133302Y-104694366D01*
X169913511Y-104753258D01*
X169913502Y-104753261D01*
X169707267Y-104849431D01*
X169707265Y-104849432D01*
X169520858Y-104979954D01*
X169359954Y-105140858D01*
X169229432Y-105327265D01*
X169229431Y-105327267D01*
X169202382Y-105385275D01*
X169156209Y-105437714D01*
X169089016Y-105456866D01*
X169022135Y-105436650D01*
X168977618Y-105385275D01*
X168950568Y-105327267D01*
X168950567Y-105327265D01*
X168820045Y-105140858D01*
X168659140Y-104979953D01*
X168473377Y-104849881D01*
X168429752Y-104795304D01*
X168420500Y-104748306D01*
X168420500Y-95990945D01*
X168420500Y-95990943D01*
X168379577Y-95838216D01*
X168379577Y-95838215D01*
X168362495Y-95808629D01*
X168339162Y-95768214D01*
X168300522Y-95701287D01*
X168300521Y-95701286D01*
X168300520Y-95701284D01*
X168188716Y-95589480D01*
X168188715Y-95589479D01*
X168184385Y-95585149D01*
X168184374Y-95585139D01*
X167080700Y-94481465D01*
X167047215Y-94420142D01*
X167045163Y-94407686D01*
X167035368Y-94320745D01*
X166975789Y-94150478D01*
X166879816Y-93997738D01*
X166752262Y-93870184D01*
X166720935Y-93850500D01*
X166599523Y-93774211D01*
X166429254Y-93714631D01*
X166429249Y-93714630D01*
X166250004Y-93694435D01*
X166249996Y-93694435D01*
X166070750Y-93714630D01*
X166070745Y-93714631D01*
X165900476Y-93774211D01*
X165747737Y-93870184D01*
X165620184Y-93997737D01*
X165524211Y-94150476D01*
X165464631Y-94320745D01*
X165464630Y-94320750D01*
X165444435Y-94499996D01*
X165444435Y-94500003D01*
X165464630Y-94679249D01*
X165464631Y-94679254D01*
X165524211Y-94849523D01*
X165592637Y-94958422D01*
X165620184Y-95002262D01*
X165747738Y-95129816D01*
X165900478Y-95225789D01*
X166070745Y-95285368D01*
X166157669Y-95295161D01*
X166222080Y-95322226D01*
X166231465Y-95330700D01*
X167183181Y-96282416D01*
X167216666Y-96343739D01*
X167219500Y-96370097D01*
X167219500Y-104748306D01*
X167199815Y-104815345D01*
X167166623Y-104849881D01*
X166980859Y-104979953D01*
X166819954Y-105140858D01*
X166689432Y-105327265D01*
X166689431Y-105327267D01*
X166662382Y-105385275D01*
X166616209Y-105437714D01*
X166549016Y-105456866D01*
X166482135Y-105436650D01*
X166437618Y-105385275D01*
X166410568Y-105327267D01*
X166410567Y-105327265D01*
X166280045Y-105140858D01*
X166119141Y-104979954D01*
X165932734Y-104849432D01*
X165932732Y-104849431D01*
X165726497Y-104753261D01*
X165726488Y-104753258D01*
X165506697Y-104694366D01*
X165506693Y-104694365D01*
X165506692Y-104694365D01*
X165506691Y-104694364D01*
X165506686Y-104694364D01*
X165280002Y-104674532D01*
X165279998Y-104674532D01*
X165053313Y-104694364D01*
X165053302Y-104694366D01*
X164833511Y-104753258D01*
X164833502Y-104753261D01*
X164627267Y-104849431D01*
X164627265Y-104849432D01*
X164440858Y-104979954D01*
X164279954Y-105140858D01*
X164149432Y-105327265D01*
X164149431Y-105327267D01*
X164122382Y-105385275D01*
X164076209Y-105437714D01*
X164009016Y-105456866D01*
X163942135Y-105436650D01*
X163897618Y-105385275D01*
X163870568Y-105327267D01*
X163870567Y-105327265D01*
X163740045Y-105140858D01*
X163579141Y-104979954D01*
X163392734Y-104849432D01*
X163392732Y-104849431D01*
X163186497Y-104753261D01*
X163186488Y-104753258D01*
X162966697Y-104694366D01*
X162966693Y-104694365D01*
X162966692Y-104694365D01*
X162966691Y-104694364D01*
X162966686Y-104694364D01*
X162740002Y-104674532D01*
X162739998Y-104674532D01*
X162513313Y-104694364D01*
X162513302Y-104694366D01*
X162293511Y-104753258D01*
X162293502Y-104753261D01*
X162087267Y-104849431D01*
X162087265Y-104849432D01*
X161900858Y-104979954D01*
X161739954Y-105140858D01*
X161609432Y-105327265D01*
X161609431Y-105327267D01*
X161582382Y-105385275D01*
X161536209Y-105437714D01*
X161469016Y-105456866D01*
X161402135Y-105436650D01*
X161357618Y-105385275D01*
X161330568Y-105327267D01*
X161330567Y-105327265D01*
X161200045Y-105140858D01*
X161039141Y-104979954D01*
X160852734Y-104849432D01*
X160852732Y-104849431D01*
X160646497Y-104753261D01*
X160646488Y-104753258D01*
X160426697Y-104694366D01*
X160426693Y-104694365D01*
X160426692Y-104694365D01*
X160426691Y-104694364D01*
X160426686Y-104694364D01*
X160200002Y-104674532D01*
X160199998Y-104674532D01*
X159973313Y-104694364D01*
X159973302Y-104694366D01*
X159753511Y-104753258D01*
X159753502Y-104753261D01*
X159547261Y-104849434D01*
X159546493Y-104849878D01*
X159546111Y-104849970D01*
X159542360Y-104851720D01*
X159542008Y-104850965D01*
X159478592Y-104866346D01*
X159412567Y-104843490D01*
X159369380Y-104788566D01*
X159360500Y-104742487D01*
X159360500Y-96568726D01*
X159379507Y-96502753D01*
X159421177Y-96436437D01*
X159475789Y-96349522D01*
X159475794Y-96349505D01*
X159476365Y-96348323D01*
X159476950Y-96347673D01*
X159479495Y-96343625D01*
X159480203Y-96344070D01*
X159523179Y-96296456D01*
X159590604Y-96278132D01*
X159601976Y-96278886D01*
X159630649Y-96282117D01*
X159749997Y-96295565D01*
X159750000Y-96295565D01*
X159750004Y-96295565D01*
X159929249Y-96275369D01*
X159929252Y-96275368D01*
X159929255Y-96275368D01*
X160099522Y-96215789D01*
X160252262Y-96119816D01*
X160379816Y-95992262D01*
X160475789Y-95839522D01*
X160535368Y-95669255D01*
X160535369Y-95669249D01*
X160555565Y-95490003D01*
X160555565Y-95489996D01*
X160535369Y-95310750D01*
X160535368Y-95310745D01*
X160524442Y-95279520D01*
X160475789Y-95140478D01*
X160379816Y-94987738D01*
X160379814Y-94987736D01*
X160379813Y-94987734D01*
X160377550Y-94984896D01*
X160376659Y-94982715D01*
X160376111Y-94981842D01*
X160376264Y-94981745D01*
X160351144Y-94920209D01*
X160350500Y-94907587D01*
X160350500Y-94240531D01*
X160350501Y-94240518D01*
X160350501Y-94072415D01*
X160344500Y-94050019D01*
X160309577Y-93919687D01*
X160285252Y-93877555D01*
X160230524Y-93782761D01*
X160230518Y-93782753D01*
X159285384Y-92837620D01*
X159285382Y-92837617D01*
X159160763Y-92712998D01*
X159163028Y-92710732D01*
X159130695Y-92666462D01*
X159126532Y-92596716D01*
X159160737Y-92535792D01*
X159222450Y-92503032D01*
X159247379Y-92500500D01*
X160949903Y-92500500D01*
X161016942Y-92520185D01*
X161037584Y-92536819D01*
X163019298Y-94518533D01*
X163052783Y-94579856D01*
X163054837Y-94592330D01*
X163064630Y-94679249D01*
X163124210Y-94849521D01*
X163192637Y-94958422D01*
X163220184Y-95002262D01*
X163347738Y-95129816D01*
X163500478Y-95225789D01*
X163654030Y-95279519D01*
X163670745Y-95285368D01*
X163670750Y-95285369D01*
X163849996Y-95305565D01*
X163850000Y-95305565D01*
X163850004Y-95305565D01*
X164029249Y-95285369D01*
X164029252Y-95285368D01*
X164029255Y-95285368D01*
X164199522Y-95225789D01*
X164352262Y-95129816D01*
X164479816Y-95002262D01*
X164575789Y-94849522D01*
X164635368Y-94679255D01*
X164646498Y-94580474D01*
X164655565Y-94500003D01*
X164655565Y-94499996D01*
X164635369Y-94320750D01*
X164635366Y-94320737D01*
X164575789Y-94150479D01*
X164575788Y-94150477D01*
X164575787Y-94150476D01*
X164572541Y-94145310D01*
X164563799Y-94125262D01*
X164562687Y-94125723D01*
X164559579Y-94118219D01*
X164533133Y-94072414D01*
X164480519Y-93981284D01*
X164368716Y-93869481D01*
X164282061Y-93819450D01*
X164231784Y-93790422D01*
X164224281Y-93787315D01*
X164224739Y-93786208D01*
X164204693Y-93777460D01*
X164199526Y-93774213D01*
X164199524Y-93774212D01*
X164199522Y-93774211D01*
X164029255Y-93714632D01*
X164029251Y-93714631D01*
X164029247Y-93714630D01*
X163942330Y-93704837D01*
X163877916Y-93677770D01*
X163868533Y-93669298D01*
X161737590Y-91538355D01*
X161737588Y-91538352D01*
X161618717Y-91419481D01*
X161618716Y-91419480D01*
X161528240Y-91367244D01*
X161528239Y-91367243D01*
X161481790Y-91340425D01*
X161481789Y-91340424D01*
X161469263Y-91337067D01*
X161329057Y-91299499D01*
X161170943Y-91299499D01*
X161163347Y-91299499D01*
X161163331Y-91299500D01*
X155330528Y-91299500D01*
X155172413Y-91299500D01*
X155148040Y-91306031D01*
X155105255Y-91317495D01*
X155019685Y-91340423D01*
X155019680Y-91340426D01*
X154882761Y-91419475D01*
X154882753Y-91419481D01*
X148419481Y-97882753D01*
X148419480Y-97882755D01*
X148373118Y-97963058D01*
X148369361Y-97969565D01*
X148369359Y-97969567D01*
X148340425Y-98019680D01*
X148340424Y-98019681D01*
X148340423Y-98019686D01*
X148299499Y-98172414D01*
X148299499Y-98172416D01*
X148299499Y-98340517D01*
X148299500Y-98340530D01*
X148299500Y-101043330D01*
X148299499Y-101043348D01*
X148299499Y-101209054D01*
X148299498Y-101209054D01*
X148299499Y-101209057D01*
X148340423Y-101361785D01*
X148340424Y-101361786D01*
X148351680Y-101381284D01*
X148351681Y-101381285D01*
X148419475Y-101498709D01*
X148424426Y-101505161D01*
X148423362Y-101505977D01*
X148452783Y-101559857D01*
X148454837Y-101572331D01*
X148464630Y-101659249D01*
X148524210Y-101829521D01*
X148532261Y-101842334D01*
X148620184Y-101982262D01*
X148747738Y-102109816D01*
X148900478Y-102205789D01*
X149033290Y-102252262D01*
X149070745Y-102265368D01*
X149070750Y-102265369D01*
X149249996Y-102285565D01*
X149250000Y-102285565D01*
X149250004Y-102285565D01*
X149429249Y-102265369D01*
X149429252Y-102265368D01*
X149429255Y-102265368D01*
X149599522Y-102205789D01*
X149752262Y-102109816D01*
X149879816Y-101982262D01*
X149975789Y-101829522D01*
X150035368Y-101659255D01*
X150045341Y-101570745D01*
X150055565Y-101480003D01*
X150055565Y-101479996D01*
X150035369Y-101300750D01*
X150035368Y-101300745D01*
X150029987Y-101285367D01*
X149975789Y-101130478D01*
X149975372Y-101129815D01*
X149925811Y-101050939D01*
X149879816Y-100977738D01*
X149752262Y-100850184D01*
X149599524Y-100754212D01*
X149599525Y-100754212D01*
X149597785Y-100753603D01*
X149583541Y-100748619D01*
X149526768Y-100707897D01*
X149501022Y-100642944D01*
X149500500Y-100631579D01*
X149500500Y-100416321D01*
X149520185Y-100349282D01*
X149572989Y-100303527D01*
X149610612Y-100293101D01*
X149679255Y-100285368D01*
X149849522Y-100225789D01*
X150002262Y-100129816D01*
X150129816Y-100002262D01*
X150177911Y-99925717D01*
X150195216Y-99904019D01*
X150230520Y-99868716D01*
X150230520Y-99868715D01*
X150240722Y-99858514D01*
X150240729Y-99858504D01*
X156263151Y-93836084D01*
X156324474Y-93802599D01*
X156350832Y-93799765D01*
X156801637Y-93799765D01*
X156868676Y-93819450D01*
X156914431Y-93872254D01*
X156924375Y-93941412D01*
X156895350Y-94004968D01*
X156889318Y-94011446D01*
X153539481Y-97361282D01*
X153539479Y-97361285D01*
X153489361Y-97448094D01*
X153489359Y-97448096D01*
X153460425Y-97498209D01*
X153460424Y-97498210D01*
X153460423Y-97498215D01*
X153419499Y-97650943D01*
X153419499Y-97650945D01*
X153419499Y-97819046D01*
X153419500Y-97819059D01*
X153419500Y-104742487D01*
X153399815Y-104809526D01*
X153347011Y-104855281D01*
X153277853Y-104865225D01*
X153237805Y-104851365D01*
X153237640Y-104851720D01*
X153234216Y-104850123D01*
X153233507Y-104849878D01*
X153232738Y-104849434D01*
X153225071Y-104845859D01*
X153116657Y-104795304D01*
X153026497Y-104753261D01*
X153026488Y-104753258D01*
X152806697Y-104694366D01*
X152806693Y-104694365D01*
X152806692Y-104694365D01*
X152806691Y-104694364D01*
X152806686Y-104694364D01*
X152580002Y-104674532D01*
X152579998Y-104674532D01*
X152353313Y-104694364D01*
X152353302Y-104694366D01*
X152133511Y-104753258D01*
X152133502Y-104753261D01*
X151927267Y-104849431D01*
X151927265Y-104849432D01*
X151740858Y-104979954D01*
X151579954Y-105140858D01*
X151449432Y-105327265D01*
X151449431Y-105327267D01*
X151422382Y-105385275D01*
X151376209Y-105437714D01*
X151309016Y-105456866D01*
X151242135Y-105436650D01*
X151197618Y-105385275D01*
X151170568Y-105327267D01*
X151170567Y-105327265D01*
X151040045Y-105140858D01*
X150879141Y-104979954D01*
X150692734Y-104849432D01*
X150692732Y-104849431D01*
X150486497Y-104753261D01*
X150486488Y-104753258D01*
X150266697Y-104694366D01*
X150266693Y-104694365D01*
X150266692Y-104694365D01*
X150266691Y-104694364D01*
X150266686Y-104694364D01*
X150040002Y-104674532D01*
X150039998Y-104674532D01*
X149813313Y-104694364D01*
X149813302Y-104694366D01*
X149593511Y-104753258D01*
X149593502Y-104753261D01*
X149387267Y-104849431D01*
X149387265Y-104849432D01*
X149200858Y-104979954D01*
X149039954Y-105140858D01*
X148909432Y-105327265D01*
X148909431Y-105327267D01*
X148882382Y-105385275D01*
X148836209Y-105437714D01*
X148769016Y-105456866D01*
X148702135Y-105436650D01*
X148657618Y-105385275D01*
X148630568Y-105327267D01*
X148630567Y-105327265D01*
X148500045Y-105140858D01*
X148339141Y-104979954D01*
X148152734Y-104849432D01*
X148152732Y-104849431D01*
X147946497Y-104753261D01*
X147946488Y-104753258D01*
X147726697Y-104694366D01*
X147726693Y-104694365D01*
X147726692Y-104694365D01*
X147726691Y-104694364D01*
X147726686Y-104694364D01*
X147500002Y-104674532D01*
X147499998Y-104674532D01*
X147273313Y-104694364D01*
X147273302Y-104694366D01*
X147053511Y-104753258D01*
X147053502Y-104753261D01*
X146847267Y-104849431D01*
X146847265Y-104849432D01*
X146660858Y-104979954D01*
X146499954Y-105140858D01*
X146369432Y-105327265D01*
X146369431Y-105327267D01*
X146342382Y-105385275D01*
X146296209Y-105437714D01*
X146229016Y-105456866D01*
X146162135Y-105436650D01*
X146117618Y-105385275D01*
X146090568Y-105327267D01*
X146090567Y-105327265D01*
X145960045Y-105140858D01*
X145799141Y-104979954D01*
X145612734Y-104849432D01*
X145612732Y-104849431D01*
X145406497Y-104753261D01*
X145406488Y-104753258D01*
X145186697Y-104694366D01*
X145186693Y-104694365D01*
X145186692Y-104694365D01*
X145186691Y-104694364D01*
X145186686Y-104694364D01*
X144960002Y-104674532D01*
X144959998Y-104674532D01*
X144733313Y-104694364D01*
X144733302Y-104694366D01*
X144513511Y-104753258D01*
X144513502Y-104753261D01*
X144307267Y-104849431D01*
X144307265Y-104849432D01*
X144120858Y-104979954D01*
X143959954Y-105140858D01*
X143829432Y-105327265D01*
X143829431Y-105327267D01*
X143802382Y-105385275D01*
X143756209Y-105437714D01*
X143689016Y-105456866D01*
X143622135Y-105436650D01*
X143577618Y-105385275D01*
X143550568Y-105327267D01*
X143550567Y-105327265D01*
X143420045Y-105140858D01*
X143259141Y-104979954D01*
X143072734Y-104849432D01*
X143072732Y-104849431D01*
X142866497Y-104753261D01*
X142866488Y-104753258D01*
X142646697Y-104694366D01*
X142646693Y-104694365D01*
X142646692Y-104694365D01*
X142646691Y-104694364D01*
X142646686Y-104694364D01*
X142420002Y-104674532D01*
X142419998Y-104674532D01*
X142193313Y-104694364D01*
X142193302Y-104694366D01*
X141973511Y-104753258D01*
X141973502Y-104753261D01*
X141767267Y-104849431D01*
X141767265Y-104849432D01*
X141580858Y-104979954D01*
X141419954Y-105140858D01*
X141289432Y-105327265D01*
X141289431Y-105327267D01*
X141262382Y-105385275D01*
X141216209Y-105437714D01*
X141149016Y-105456866D01*
X141082135Y-105436650D01*
X141037618Y-105385275D01*
X141010568Y-105327267D01*
X141010567Y-105327265D01*
X140880045Y-105140858D01*
X140719141Y-104979954D01*
X140532734Y-104849432D01*
X140532732Y-104849431D01*
X140326497Y-104753261D01*
X140326488Y-104753258D01*
X140106697Y-104694366D01*
X140106693Y-104694365D01*
X140106692Y-104694365D01*
X140106691Y-104694364D01*
X140106686Y-104694364D01*
X139880002Y-104674532D01*
X139879998Y-104674532D01*
X139653313Y-104694364D01*
X139653302Y-104694366D01*
X139433511Y-104753258D01*
X139433502Y-104753261D01*
X139227267Y-104849431D01*
X139227265Y-104849432D01*
X139040858Y-104979954D01*
X138879954Y-105140858D01*
X138749432Y-105327265D01*
X138749431Y-105327267D01*
X138722382Y-105385275D01*
X138676209Y-105437714D01*
X138609016Y-105456866D01*
X138542135Y-105436650D01*
X138497618Y-105385275D01*
X138470568Y-105327267D01*
X138470567Y-105327265D01*
X138340045Y-105140858D01*
X138179141Y-104979954D01*
X137992734Y-104849432D01*
X137992732Y-104849431D01*
X137786497Y-104753261D01*
X137786488Y-104753258D01*
X137566697Y-104694366D01*
X137566693Y-104694365D01*
X137566692Y-104694365D01*
X137566691Y-104694364D01*
X137566686Y-104694364D01*
X137340002Y-104674532D01*
X137339998Y-104674532D01*
X137113313Y-104694364D01*
X137113302Y-104694366D01*
X136893511Y-104753258D01*
X136893502Y-104753261D01*
X136687267Y-104849431D01*
X136687265Y-104849432D01*
X136500858Y-104979954D01*
X136339954Y-105140858D01*
X136209432Y-105327265D01*
X136209431Y-105327267D01*
X136182382Y-105385275D01*
X136136209Y-105437714D01*
X136069016Y-105456866D01*
X136002135Y-105436650D01*
X135957618Y-105385275D01*
X135930568Y-105327267D01*
X135930567Y-105327265D01*
X135800045Y-105140858D01*
X135639141Y-104979954D01*
X135452734Y-104849432D01*
X135452732Y-104849431D01*
X135246497Y-104753261D01*
X135246488Y-104753258D01*
X135026697Y-104694366D01*
X135026693Y-104694365D01*
X135026692Y-104694365D01*
X135026691Y-104694364D01*
X135026686Y-104694364D01*
X134800002Y-104674532D01*
X134799998Y-104674532D01*
X134573313Y-104694364D01*
X134573302Y-104694366D01*
X134353511Y-104753258D01*
X134353502Y-104753261D01*
X134147267Y-104849431D01*
X134147265Y-104849432D01*
X133960858Y-104979954D01*
X133799954Y-105140858D01*
X133669432Y-105327265D01*
X133669431Y-105327267D01*
X133642382Y-105385275D01*
X133596209Y-105437714D01*
X133529016Y-105456866D01*
X133462135Y-105436650D01*
X133417618Y-105385275D01*
X133390568Y-105327267D01*
X133390567Y-105327265D01*
X133260045Y-105140858D01*
X133099141Y-104979954D01*
X132912734Y-104849432D01*
X132912732Y-104849431D01*
X132706497Y-104753261D01*
X132706488Y-104753258D01*
X132486697Y-104694366D01*
X132486693Y-104694365D01*
X132486692Y-104694365D01*
X132486691Y-104694364D01*
X132486686Y-104694364D01*
X132260002Y-104674532D01*
X132259998Y-104674532D01*
X132033313Y-104694364D01*
X132033302Y-104694366D01*
X131813511Y-104753258D01*
X131813502Y-104753261D01*
X131607267Y-104849431D01*
X131607265Y-104849432D01*
X131420858Y-104979954D01*
X131259954Y-105140858D01*
X131129432Y-105327265D01*
X131129431Y-105327267D01*
X131102382Y-105385275D01*
X131056209Y-105437714D01*
X130989016Y-105456866D01*
X130922135Y-105436650D01*
X130877618Y-105385275D01*
X130850568Y-105327267D01*
X130850567Y-105327265D01*
X130720045Y-105140858D01*
X130559141Y-104979954D01*
X130372734Y-104849432D01*
X130372732Y-104849431D01*
X130166497Y-104753261D01*
X130166488Y-104753258D01*
X129946697Y-104694366D01*
X129946693Y-104694365D01*
X129946692Y-104694365D01*
X129946691Y-104694364D01*
X129946686Y-104694364D01*
X129720002Y-104674532D01*
X129719998Y-104674532D01*
X129493313Y-104694364D01*
X129493302Y-104694366D01*
X129273511Y-104753258D01*
X129273502Y-104753261D01*
X129067267Y-104849431D01*
X129067265Y-104849432D01*
X128880858Y-104979954D01*
X128719954Y-105140858D01*
X128589432Y-105327265D01*
X128589431Y-105327267D01*
X128562382Y-105385275D01*
X128516209Y-105437714D01*
X128449016Y-105456866D01*
X128382135Y-105436650D01*
X128337618Y-105385275D01*
X128310568Y-105327267D01*
X128310567Y-105327265D01*
X128180045Y-105140858D01*
X128019141Y-104979954D01*
X127832734Y-104849432D01*
X127832732Y-104849431D01*
X127626497Y-104753261D01*
X127626488Y-104753258D01*
X127406697Y-104694366D01*
X127406693Y-104694365D01*
X127406692Y-104694365D01*
X127406691Y-104694364D01*
X127406686Y-104694364D01*
X127180002Y-104674532D01*
X127179998Y-104674532D01*
X126965645Y-104693285D01*
X126897145Y-104679518D01*
X126846962Y-104630903D01*
X126831029Y-104562874D01*
X126854405Y-104497031D01*
X126867150Y-104482083D01*
X137268536Y-94080698D01*
X137329857Y-94047215D01*
X137342310Y-94045163D01*
X137429255Y-94035368D01*
X137599522Y-93975789D01*
X137752262Y-93879816D01*
X137752267Y-93879810D01*
X137755097Y-93877555D01*
X137757275Y-93876665D01*
X137758158Y-93876111D01*
X137758255Y-93876265D01*
X137819783Y-93851145D01*
X137832412Y-93850500D01*
X147019905Y-93850500D01*
X147086944Y-93870185D01*
X147107586Y-93886819D01*
X148169298Y-94948531D01*
X148202783Y-95009854D01*
X148204837Y-95022328D01*
X148214630Y-95109247D01*
X148274210Y-95279519D01*
X148370184Y-95432260D01*
X148497738Y-95559814D01*
X148650478Y-95655787D01*
X148780501Y-95701284D01*
X148820745Y-95715366D01*
X148820750Y-95715367D01*
X148999996Y-95735563D01*
X149000000Y-95735563D01*
X149000004Y-95735563D01*
X149179249Y-95715367D01*
X149179252Y-95715366D01*
X149179255Y-95715366D01*
X149349522Y-95655787D01*
X149502262Y-95559814D01*
X149629816Y-95432260D01*
X149725789Y-95279520D01*
X149785368Y-95109253D01*
X149795162Y-95022328D01*
X149805565Y-94930001D01*
X149805565Y-94929994D01*
X149785369Y-94750748D01*
X149785368Y-94750743D01*
X149725788Y-94580474D01*
X149675224Y-94500003D01*
X149629816Y-94427736D01*
X149502262Y-94300182D01*
X149407328Y-94240531D01*
X149349521Y-94204208D01*
X149179249Y-94144628D01*
X149092330Y-94134835D01*
X149027916Y-94107768D01*
X149018533Y-94099296D01*
X147807592Y-92888355D01*
X147807590Y-92888352D01*
X147688719Y-92769481D01*
X147688711Y-92769475D01*
X147586938Y-92710717D01*
X147586936Y-92710716D01*
X147551792Y-92690425D01*
X147551791Y-92690424D01*
X147539265Y-92687067D01*
X147399059Y-92649499D01*
X147240945Y-92649499D01*
X147233349Y-92649499D01*
X147233333Y-92649500D01*
X137832412Y-92649500D01*
X137765373Y-92629815D01*
X137755097Y-92622445D01*
X137752263Y-92620185D01*
X137752262Y-92620184D01*
X137677152Y-92572989D01*
X137599523Y-92524211D01*
X137429254Y-92464631D01*
X137429249Y-92464630D01*
X137250004Y-92444435D01*
X137249996Y-92444435D01*
X137070750Y-92464630D01*
X137070745Y-92464631D01*
X136900476Y-92524211D01*
X136747737Y-92620184D01*
X136620184Y-92747737D01*
X136524210Y-92900478D01*
X136464630Y-93070750D01*
X136454837Y-93157667D01*
X136427770Y-93222081D01*
X136419298Y-93231464D01*
X123631286Y-106019478D01*
X123519481Y-106131282D01*
X123519477Y-106131287D01*
X123477584Y-106203850D01*
X123477584Y-106203851D01*
X123440423Y-106268214D01*
X123440423Y-106268215D01*
X123399499Y-106420943D01*
X123399499Y-106420945D01*
X123399499Y-106589046D01*
X123399500Y-106589059D01*
X123399500Y-106667587D01*
X123379815Y-106734626D01*
X123372450Y-106744896D01*
X123370186Y-106747734D01*
X123274211Y-106900476D01*
X123214631Y-107070745D01*
X123214630Y-107070750D01*
X123194435Y-107249996D01*
X123194435Y-107250003D01*
X123214630Y-107429249D01*
X123214631Y-107429254D01*
X123274211Y-107599523D01*
X123347397Y-107715997D01*
X123370184Y-107752262D01*
X123497738Y-107879816D01*
X123650478Y-107975789D01*
X123756878Y-108013020D01*
X123820745Y-108035368D01*
X123820750Y-108035369D01*
X123999996Y-108055565D01*
X124000000Y-108055565D01*
X124000004Y-108055565D01*
X124179249Y-108035369D01*
X124179251Y-108035368D01*
X124179255Y-108035368D01*
X124179258Y-108035366D01*
X124179262Y-108035366D01*
X124337361Y-107980045D01*
X124407140Y-107976483D01*
X124467767Y-108011211D01*
X124499995Y-108073205D01*
X124493590Y-108142780D01*
X124465997Y-108184767D01*
X124287584Y-108363181D01*
X124226261Y-108396666D01*
X124199903Y-108399500D01*
X120550097Y-108399500D01*
X120483058Y-108379815D01*
X120462416Y-108363181D01*
X119419319Y-107320084D01*
X119385834Y-107258761D01*
X119383000Y-107232403D01*
X119383000Y-101749996D01*
X120444435Y-101749996D01*
X120444435Y-101750003D01*
X120464630Y-101929249D01*
X120464631Y-101929254D01*
X120524211Y-102099523D01*
X120530679Y-102109816D01*
X120620184Y-102252262D01*
X120747738Y-102379816D01*
X120900478Y-102475789D01*
X121070745Y-102535368D01*
X121070750Y-102535369D01*
X121249996Y-102555565D01*
X121250000Y-102555565D01*
X121250004Y-102555565D01*
X121429249Y-102535369D01*
X121429252Y-102535368D01*
X121429255Y-102535368D01*
X121599522Y-102475789D01*
X121752262Y-102379816D01*
X121879816Y-102252262D01*
X121975789Y-102099522D01*
X122035368Y-101929255D01*
X122045161Y-101842330D01*
X122072226Y-101777920D01*
X122080700Y-101768534D01*
X122230520Y-101618716D01*
X122309577Y-101481784D01*
X122350501Y-101329057D01*
X122350501Y-101170942D01*
X122350501Y-101163347D01*
X122350500Y-101163329D01*
X122350500Y-99582412D01*
X122370185Y-99515373D01*
X122377555Y-99505097D01*
X122379810Y-99502267D01*
X122379816Y-99502262D01*
X122475789Y-99349522D01*
X122535368Y-99179255D01*
X122555565Y-99000000D01*
X122535368Y-98820745D01*
X122475789Y-98650478D01*
X122379816Y-98497738D01*
X122252262Y-98370184D01*
X122205068Y-98340530D01*
X122099523Y-98274211D01*
X121929254Y-98214631D01*
X121929249Y-98214630D01*
X121750004Y-98194435D01*
X121749996Y-98194435D01*
X121570750Y-98214630D01*
X121570745Y-98214631D01*
X121400476Y-98274211D01*
X121247737Y-98370184D01*
X121120184Y-98497737D01*
X121024211Y-98650476D01*
X120964631Y-98820745D01*
X120964630Y-98820750D01*
X120944435Y-98999996D01*
X120944435Y-99000003D01*
X120964630Y-99179249D01*
X120964631Y-99179254D01*
X121024211Y-99349523D01*
X121120185Y-99502263D01*
X121122445Y-99505097D01*
X121123334Y-99507275D01*
X121123889Y-99508158D01*
X121123734Y-99508255D01*
X121148855Y-99569783D01*
X121149500Y-99582412D01*
X121149500Y-100849092D01*
X121129815Y-100916131D01*
X121077011Y-100961886D01*
X121066463Y-100966130D01*
X121010093Y-100985854D01*
X120900478Y-101024210D01*
X120747737Y-101120184D01*
X120620184Y-101247737D01*
X120524211Y-101400476D01*
X120464631Y-101570745D01*
X120464630Y-101570750D01*
X120444435Y-101749996D01*
X119383000Y-101749996D01*
X119383000Y-91767598D01*
X119402685Y-91700559D01*
X119419319Y-91679917D01*
X119513020Y-91586216D01*
X119513020Y-91586214D01*
X119523224Y-91576011D01*
X119523228Y-91576006D01*
X124349238Y-86749996D01*
X149444435Y-86749996D01*
X149444435Y-86750003D01*
X149464630Y-86929249D01*
X149464631Y-86929254D01*
X149524211Y-87099523D01*
X149588517Y-87201864D01*
X149620184Y-87252262D01*
X149747738Y-87379816D01*
X149815973Y-87422691D01*
X149894772Y-87472204D01*
X149900478Y-87475789D01*
X149970881Y-87500424D01*
X150070745Y-87535368D01*
X150070750Y-87535369D01*
X150249996Y-87555565D01*
X150250000Y-87555565D01*
X150250004Y-87555565D01*
X150429249Y-87535369D01*
X150429252Y-87535368D01*
X150429255Y-87535368D01*
X150599522Y-87475789D01*
X150605228Y-87472204D01*
X150684027Y-87422691D01*
X150751264Y-87403690D01*
X150815973Y-87422691D01*
X150900475Y-87475788D01*
X151070745Y-87535368D01*
X151070750Y-87535369D01*
X151249996Y-87555565D01*
X151250000Y-87555565D01*
X151250004Y-87555565D01*
X151429249Y-87535369D01*
X151429252Y-87535368D01*
X151429255Y-87535368D01*
X151599522Y-87475789D01*
X151752262Y-87379816D01*
X151879816Y-87252262D01*
X151975789Y-87099522D01*
X152035368Y-86929255D01*
X152055565Y-86750000D01*
X152035368Y-86570745D01*
X151975789Y-86400478D01*
X151975788Y-86400476D01*
X151947815Y-86355957D01*
X151928815Y-86288720D01*
X151949183Y-86221885D01*
X151965123Y-86202309D01*
X152233508Y-85933925D01*
X152233513Y-85933921D01*
X152243716Y-85923717D01*
X152243718Y-85923717D01*
X152355522Y-85811913D01*
X152428155Y-85686108D01*
X152434579Y-85674982D01*
X152475502Y-85522255D01*
X152475502Y-85364140D01*
X152475502Y-64996581D01*
X152495187Y-64929542D01*
X152533530Y-64891587D01*
X152552265Y-64879816D01*
X152679819Y-64752262D01*
X152775792Y-64599522D01*
X152835371Y-64429255D01*
X152855568Y-64250000D01*
X152835371Y-64070745D01*
X152775792Y-63900478D01*
X152679819Y-63747738D01*
X152552265Y-63620184D01*
X152399526Y-63524211D01*
X152229257Y-63464631D01*
X152229252Y-63464630D01*
X152050007Y-63444435D01*
X152049999Y-63444435D01*
X151870753Y-63464630D01*
X151870740Y-63464633D01*
X151693909Y-63526510D01*
X151693160Y-63524369D01*
X151634824Y-63533958D01*
X151606408Y-63525611D01*
X151606094Y-63526510D01*
X151429262Y-63464633D01*
X151429249Y-63464630D01*
X151250004Y-63444435D01*
X151249996Y-63444435D01*
X151070750Y-63464630D01*
X151070745Y-63464631D01*
X150900476Y-63524211D01*
X150747737Y-63620184D01*
X150620184Y-63747737D01*
X150524211Y-63900476D01*
X150464631Y-64070745D01*
X150464630Y-64070750D01*
X150444435Y-64249996D01*
X150444435Y-64250003D01*
X150464630Y-64429249D01*
X150464631Y-64429254D01*
X150524211Y-64599523D01*
X150620184Y-64752262D01*
X150747738Y-64879816D01*
X150766472Y-64891587D01*
X150812763Y-64943920D01*
X150824501Y-64996581D01*
X150824501Y-84956702D01*
X150804816Y-85023741D01*
X150788182Y-85044383D01*
X149769481Y-86063083D01*
X149769477Y-86063088D01*
X149729346Y-86132598D01*
X149709641Y-86158278D01*
X149620186Y-86247733D01*
X149620186Y-86247734D01*
X149524211Y-86400476D01*
X149464631Y-86570745D01*
X149464630Y-86570750D01*
X149444435Y-86749996D01*
X124349238Y-86749996D01*
X134983506Y-76115728D01*
X134983511Y-76115724D01*
X134993714Y-76105520D01*
X134993716Y-76105520D01*
X135105520Y-75993716D01*
X135105520Y-75993714D01*
X135115724Y-75983511D01*
X135115728Y-75983506D01*
X135199225Y-75900008D01*
X135260546Y-75866525D01*
X135266498Y-75865382D01*
X135267918Y-75865144D01*
X135284981Y-75862298D01*
X135504503Y-75786936D01*
X135708626Y-75676470D01*
X135891784Y-75533913D01*
X136048979Y-75363153D01*
X136175924Y-75168849D01*
X136269157Y-74956300D01*
X136326134Y-74731305D01*
X136326135Y-74731297D01*
X136345300Y-74500006D01*
X136345300Y-74499993D01*
X141154700Y-74499993D01*
X141154700Y-74500006D01*
X141173864Y-74731297D01*
X141173866Y-74731308D01*
X141230842Y-74956300D01*
X141324075Y-75168848D01*
X141451016Y-75363147D01*
X141451019Y-75363151D01*
X141451021Y-75363153D01*
X141608216Y-75533913D01*
X141608219Y-75533915D01*
X141608222Y-75533918D01*
X141791365Y-75676464D01*
X141791371Y-75676468D01*
X141791374Y-75676470D01*
X141995497Y-75786936D01*
X142109487Y-75826068D01*
X142215015Y-75862297D01*
X142215017Y-75862297D01*
X142215019Y-75862298D01*
X142443951Y-75900500D01*
X142443952Y-75900500D01*
X142676048Y-75900500D01*
X142676049Y-75900500D01*
X142904981Y-75862298D01*
X143124503Y-75786936D01*
X143328626Y-75676470D01*
X143511784Y-75533913D01*
X143668979Y-75363153D01*
X143795924Y-75168849D01*
X143889157Y-74956300D01*
X143946134Y-74731305D01*
X143946135Y-74731297D01*
X143965300Y-74500006D01*
X143965300Y-74499993D01*
X143946135Y-74268702D01*
X143946133Y-74268691D01*
X143889157Y-74043699D01*
X143795924Y-73831151D01*
X143668983Y-73636852D01*
X143668980Y-73636849D01*
X143668979Y-73636847D01*
X143511784Y-73466087D01*
X143511779Y-73466083D01*
X143511777Y-73466081D01*
X143328634Y-73323535D01*
X143328628Y-73323531D01*
X143124504Y-73213064D01*
X143124495Y-73213061D01*
X142904984Y-73137702D01*
X142732272Y-73108882D01*
X142676049Y-73099500D01*
X142443951Y-73099500D01*
X142398164Y-73107140D01*
X142215015Y-73137702D01*
X141995504Y-73213061D01*
X141995495Y-73213064D01*
X141791371Y-73323531D01*
X141791365Y-73323535D01*
X141608222Y-73466081D01*
X141608219Y-73466084D01*
X141451016Y-73636852D01*
X141324075Y-73831151D01*
X141230842Y-74043699D01*
X141173866Y-74268691D01*
X141173864Y-74268702D01*
X141154700Y-74499993D01*
X136345300Y-74499993D01*
X136326135Y-74268702D01*
X136326133Y-74268691D01*
X136269157Y-74043699D01*
X136175924Y-73831151D01*
X136048983Y-73636852D01*
X136048980Y-73636849D01*
X136048979Y-73636847D01*
X135891784Y-73466087D01*
X135891779Y-73466083D01*
X135891777Y-73466081D01*
X135708634Y-73323535D01*
X135708628Y-73323531D01*
X135504504Y-73213064D01*
X135504495Y-73213061D01*
X135284984Y-73137702D01*
X135112272Y-73108882D01*
X135056049Y-73099500D01*
X134823951Y-73099500D01*
X134778164Y-73107140D01*
X134595015Y-73137702D01*
X134375504Y-73213061D01*
X134375495Y-73213064D01*
X134171371Y-73323531D01*
X134171365Y-73323535D01*
X133988222Y-73466081D01*
X133988219Y-73466084D01*
X133831016Y-73636852D01*
X133704075Y-73831151D01*
X133610842Y-74043699D01*
X133553866Y-74268691D01*
X133553864Y-74268702D01*
X133534700Y-74499993D01*
X133534700Y-74500006D01*
X133553864Y-74731297D01*
X133553866Y-74731308D01*
X133610842Y-74956300D01*
X133704075Y-75168848D01*
X133831020Y-75363153D01*
X133831022Y-75363155D01*
X133849463Y-75383188D01*
X133880384Y-75445843D01*
X133872523Y-75515269D01*
X133845913Y-75554850D01*
X118820084Y-90580681D01*
X118758761Y-90614166D01*
X118732403Y-90617000D01*
X118703443Y-90617000D01*
X118550716Y-90657923D01*
X118550709Y-90657926D01*
X118413790Y-90736975D01*
X118413782Y-90736981D01*
X118301981Y-90848782D01*
X118301975Y-90848790D01*
X118222926Y-90985709D01*
X118222923Y-90985716D01*
X118182000Y-91138443D01*
X118182000Y-107445830D01*
X118181999Y-107445848D01*
X118181999Y-107611554D01*
X118181998Y-107611554D01*
X116279462Y-107611554D01*
X116122550Y-104891751D01*
X116122592Y-104876782D01*
X116999626Y-91063483D01*
X116999682Y-91062669D01*
X117012409Y-90889298D01*
X117012611Y-90886871D01*
X117028457Y-90717017D01*
X117028689Y-90714760D01*
X117047889Y-90545209D01*
X117048163Y-90542990D01*
X117070690Y-90373959D01*
X117071031Y-90371584D01*
X117072033Y-90365057D01*
X117096882Y-90203085D01*
X117097272Y-90200706D01*
X117102121Y-90172786D01*
X117126449Y-90032709D01*
X117126863Y-90030460D01*
X117159360Y-89863022D01*
X117159843Y-89860659D01*
X117162017Y-89850531D01*
X117196306Y-89690784D01*
X117196478Y-89690001D01*
X118116094Y-85602824D01*
X118116906Y-85599447D01*
X118243207Y-85105353D01*
X118245167Y-85098516D01*
X118396108Y-84624146D01*
X118398446Y-84617466D01*
X118575559Y-84154803D01*
X118578280Y-84148266D01*
X118780760Y-83698383D01*
X118783829Y-83692055D01*
X119010967Y-83255768D01*
X119014361Y-83249678D01*
X119265396Y-82827945D01*
X119269142Y-82822040D01*
X119543275Y-82415867D01*
X119547338Y-82410200D01*
X119843860Y-82020462D01*
X119848242Y-82015029D01*
X120166315Y-81642763D01*
X120171003Y-81637580D01*
X120509930Y-81283652D01*
X120514927Y-81278724D01*
X120694414Y-81111423D01*
X120873905Y-80944119D01*
X120879173Y-80939481D01*
X121257452Y-80625133D01*
X121262966Y-80620810D01*
X121659852Y-80327606D01*
X121665635Y-80323585D01*
X122080281Y-80052537D01*
X122086300Y-80048846D01*
X122517978Y-79800871D01*
X122524257Y-79797501D01*
X122980399Y-79569444D01*
X122983584Y-79567908D01*
X124601973Y-78816531D01*
X124604033Y-78815599D01*
X124767861Y-78743148D01*
X124772047Y-78741388D01*
X124887236Y-78695412D01*
X124932858Y-78677202D01*
X124937038Y-78675622D01*
X125100081Y-78617366D01*
X125104312Y-78615941D01*
X125269270Y-78563719D01*
X125273547Y-78562450D01*
X125440372Y-78516276D01*
X125444653Y-78515175D01*
X125613052Y-78475133D01*
X125617467Y-78474168D01*
X125787330Y-78440295D01*
X125791768Y-78439494D01*
X125968591Y-78410922D01*
X125970740Y-78410595D01*
X126406278Y-78348387D01*
X126419837Y-78347206D01*
X126424630Y-78347052D01*
X126424638Y-78347053D01*
X126483289Y-78337412D01*
X126485553Y-78337064D01*
X126544485Y-78328648D01*
X126544498Y-78328642D01*
X126549108Y-78327353D01*
X126562393Y-78324411D01*
X126617331Y-78315381D01*
X126633373Y-78314532D01*
X126633362Y-78314371D01*
X126641465Y-78313769D01*
X126641473Y-78313770D01*
X126693167Y-78303027D01*
X126698239Y-78302083D01*
X126750354Y-78293519D01*
X126750363Y-78293514D01*
X126758140Y-78291163D01*
X126758187Y-78291319D01*
X126773458Y-78286343D01*
X126831251Y-78274334D01*
X126847229Y-78272814D01*
X126847210Y-78272650D01*
X126855285Y-78271710D01*
X126855285Y-78271709D01*
X126855288Y-78271710D01*
X126906542Y-78258800D01*
X126911559Y-78257647D01*
X126963282Y-78246901D01*
X126963284Y-78246900D01*
X126970959Y-78244222D01*
X126971013Y-78244379D01*
X126986045Y-78238776D01*
X127041991Y-78224686D01*
X127057857Y-78222505D01*
X127057830Y-78222335D01*
X127065853Y-78221059D01*
X127065860Y-78221059D01*
X127116541Y-78206020D01*
X127121474Y-78204666D01*
X127172795Y-78191742D01*
X127172799Y-78191740D01*
X127180350Y-78188745D01*
X127180413Y-78188904D01*
X127195175Y-78182688D01*
X127249324Y-78166621D01*
X127265060Y-78163786D01*
X127265025Y-78163612D01*
X127272985Y-78162005D01*
X127272989Y-78162005D01*
X127323091Y-78144842D01*
X127327868Y-78143315D01*
X127378680Y-78128240D01*
X127378683Y-78128237D01*
X127386102Y-78124931D01*
X127386174Y-78125094D01*
X127400640Y-78118280D01*
X127453039Y-78100331D01*
X127468606Y-78096854D01*
X127468563Y-78096676D01*
X127476455Y-78094739D01*
X127476455Y-78094738D01*
X127476462Y-78094738D01*
X127525834Y-78075507D01*
X127530601Y-78073763D01*
X127580738Y-78056591D01*
X127580743Y-78056587D01*
X127588022Y-78052974D01*
X127588104Y-78053139D01*
X127602242Y-78045747D01*
X127652932Y-78026004D01*
X127668320Y-78021895D01*
X127668267Y-78021710D01*
X127676066Y-78019452D01*
X127676074Y-78019451D01*
X127724662Y-77998179D01*
X127729364Y-77996236D01*
X127778761Y-77976997D01*
X127778759Y-77976997D01*
X127778764Y-77976996D01*
X127778767Y-77976993D01*
X127785883Y-77973085D01*
X127785975Y-77973253D01*
X127799778Y-77965295D01*
X127848802Y-77943833D01*
X127863978Y-77939101D01*
X127863916Y-77938914D01*
X127871621Y-77936336D01*
X127871623Y-77936334D01*
X127871628Y-77936334D01*
X127919373Y-77913049D01*
X127923900Y-77910956D01*
X127972559Y-77889656D01*
X127972560Y-77889655D01*
X127972565Y-77889653D01*
X127979519Y-77885451D01*
X127979621Y-77885620D01*
X127993057Y-77877118D01*
X128040456Y-77854004D01*
X128055403Y-77848663D01*
X128055330Y-77848471D01*
X128062919Y-77845581D01*
X128062926Y-77845580D01*
X128109708Y-77820347D01*
X128114153Y-77818066D01*
X128161930Y-77794769D01*
X128161934Y-77794764D01*
X128168707Y-77790283D01*
X128168820Y-77790454D01*
X128181869Y-77781427D01*
X128227699Y-77756710D01*
X128242380Y-77750777D01*
X128242298Y-77750584D01*
X128249767Y-77747385D01*
X128249773Y-77747384D01*
X128295536Y-77720237D01*
X128299835Y-77717803D01*
X128346687Y-77692535D01*
X128346692Y-77692530D01*
X128353277Y-77687775D01*
X128353400Y-77687946D01*
X128366049Y-77678411D01*
X128410329Y-77652145D01*
X128424740Y-77645627D01*
X128424647Y-77645432D01*
X128431974Y-77641936D01*
X128431981Y-77641934D01*
X128476630Y-77612934D01*
X128480859Y-77610308D01*
X128526641Y-77583153D01*
X128526644Y-77583149D01*
X128533033Y-77578127D01*
X128533167Y-77578298D01*
X128545394Y-77568273D01*
X128588160Y-77540497D01*
X128602271Y-77533413D01*
X128602168Y-77533217D01*
X128609354Y-77529424D01*
X128609358Y-77529423D01*
X128652809Y-77498630D01*
X128656923Y-77495838D01*
X128701607Y-77466818D01*
X128701610Y-77466815D01*
X128707791Y-77461536D01*
X128707934Y-77461704D01*
X128719733Y-77451204D01*
X128760999Y-77421961D01*
X128774798Y-77414319D01*
X128774685Y-77414124D01*
X128781710Y-77410044D01*
X128781714Y-77410043D01*
X128823941Y-77377478D01*
X128827901Y-77374549D01*
X128871400Y-77343725D01*
X128871403Y-77343720D01*
X128877361Y-77338200D01*
X128877515Y-77338366D01*
X128888863Y-77327413D01*
X128900860Y-77318161D01*
X128928668Y-77296716D01*
X128942134Y-77288533D01*
X128942011Y-77288339D01*
X128948864Y-77283982D01*
X128948869Y-77283980D01*
X128948874Y-77283976D01*
X128989743Y-77249746D01*
X128993612Y-77246635D01*
X129035836Y-77214074D01*
X129035839Y-77214069D01*
X129041569Y-77208313D01*
X129041731Y-77208474D01*
X129052618Y-77197083D01*
X129090970Y-77164962D01*
X129104086Y-77156249D01*
X129103954Y-77156059D01*
X129110626Y-77151428D01*
X129110633Y-77151425D01*
X129150160Y-77115514D01*
X129153814Y-77112327D01*
X129194737Y-77078053D01*
X129194739Y-77078049D01*
X129200232Y-77072067D01*
X129200402Y-77072223D01*
X129210811Y-77060414D01*
X129247730Y-77026874D01*
X129260472Y-77017651D01*
X129260331Y-77017464D01*
X129266812Y-77012568D01*
X129266819Y-77012565D01*
X129304848Y-76975117D01*
X129308405Y-76971753D01*
X129347922Y-76935854D01*
X129347924Y-76935849D01*
X129353175Y-76929648D01*
X129353353Y-76929798D01*
X129363274Y-76917584D01*
X129398745Y-76882656D01*
X129411111Y-76872923D01*
X129410964Y-76872743D01*
X129417245Y-76867590D01*
X129417247Y-76867586D01*
X129417251Y-76867585D01*
X129453767Y-76828613D01*
X129457169Y-76825125D01*
X129495204Y-76787675D01*
X129495206Y-76787672D01*
X129500203Y-76781264D01*
X129500386Y-76781407D01*
X129509806Y-76768808D01*
X129543856Y-76732469D01*
X129555823Y-76722245D01*
X129555669Y-76722072D01*
X129561740Y-76716669D01*
X129596617Y-76676309D01*
X129599933Y-76672623D01*
X129636411Y-76633696D01*
X129636416Y-76633686D01*
X129641150Y-76627085D01*
X129641339Y-76627221D01*
X129650245Y-76614254D01*
X129682854Y-76576520D01*
X129694403Y-76565821D01*
X129694242Y-76565654D01*
X129700085Y-76560015D01*
X129700094Y-76560009D01*
X129733315Y-76518283D01*
X129736478Y-76514470D01*
X129771359Y-76474110D01*
X129771361Y-76474104D01*
X129771363Y-76474103D01*
X129775828Y-76467316D01*
X129776021Y-76467443D01*
X129784401Y-76454122D01*
X129815563Y-76414984D01*
X129826676Y-76403824D01*
X129826510Y-76403666D01*
X129832123Y-76397793D01*
X129832132Y-76397787D01*
X129863643Y-76354757D01*
X129866651Y-76350820D01*
X129899862Y-76309111D01*
X129899863Y-76309107D01*
X129904052Y-76302145D01*
X129904248Y-76302263D01*
X129912095Y-76288600D01*
X129941790Y-76248053D01*
X129952462Y-76236433D01*
X129952293Y-76236284D01*
X129957667Y-76230189D01*
X129957667Y-76230188D01*
X129957670Y-76230186D01*
X129987425Y-76185908D01*
X129990249Y-76181885D01*
X130021741Y-76138886D01*
X130021745Y-76138874D01*
X130025645Y-76131757D01*
X130025844Y-76131866D01*
X130033142Y-76117881D01*
X130034592Y-76115724D01*
X130061357Y-76075897D01*
X130071556Y-76063850D01*
X130071383Y-76063710D01*
X130076506Y-76057400D01*
X130076513Y-76057394D01*
X130104422Y-76011996D01*
X130107091Y-76007845D01*
X130136813Y-75963621D01*
X130136814Y-75963617D01*
X130140427Y-75956341D01*
X130140625Y-75956439D01*
X130147358Y-75942155D01*
X130174063Y-75898716D01*
X130183781Y-75886245D01*
X130183607Y-75886115D01*
X130188472Y-75879601D01*
X130189890Y-75877070D01*
X130214499Y-75833136D01*
X130216981Y-75828908D01*
X130244892Y-75783509D01*
X130244894Y-75783503D01*
X130248211Y-75776084D01*
X130248408Y-75776172D01*
X130254565Y-75761608D01*
X130263843Y-75745044D01*
X130279719Y-75716700D01*
X130288939Y-75703819D01*
X130288765Y-75703700D01*
X130293359Y-75696996D01*
X130293362Y-75696991D01*
X130317449Y-75649551D01*
X130319811Y-75645128D01*
X130345789Y-75598751D01*
X130345791Y-75598748D01*
X130345792Y-75598742D01*
X130348803Y-75591198D01*
X130348998Y-75591276D01*
X130354568Y-75576446D01*
X130378142Y-75530019D01*
X130386841Y-75516753D01*
X130386668Y-75516645D01*
X130390983Y-75509759D01*
X130390982Y-75509759D01*
X130390984Y-75509758D01*
X130413081Y-75461437D01*
X130415261Y-75456917D01*
X130439326Y-75409524D01*
X130439327Y-75409520D01*
X130442030Y-75401854D01*
X130442223Y-75401922D01*
X130447188Y-75386857D01*
X130469125Y-75338889D01*
X130477291Y-75325247D01*
X130477119Y-75325149D01*
X130481149Y-75318090D01*
X130501213Y-75268976D01*
X130503238Y-75264296D01*
X130525310Y-75216035D01*
X130525310Y-75216030D01*
X130527699Y-75208258D01*
X130527888Y-75208316D01*
X130532244Y-75193023D01*
X130552479Y-75143495D01*
X130560089Y-75129504D01*
X130559919Y-75129416D01*
X130563652Y-75122200D01*
X130563651Y-75122200D01*
X130563655Y-75122196D01*
X130581673Y-75072310D01*
X130583487Y-75067594D01*
X130603553Y-75018483D01*
X130603554Y-75018473D01*
X130605619Y-75010619D01*
X130605805Y-75010667D01*
X130609533Y-74995181D01*
X130628008Y-74944035D01*
X130635051Y-74929707D01*
X130634883Y-74929629D01*
X130638320Y-74922255D01*
X130654235Y-74871739D01*
X130655860Y-74866925D01*
X130673870Y-74817070D01*
X130673870Y-74817065D01*
X130675610Y-74809129D01*
X130675791Y-74809168D01*
X130678884Y-74793505D01*
X130695522Y-74740697D01*
X130701976Y-74726064D01*
X130701811Y-74725995D01*
X130704932Y-74718497D01*
X130704937Y-74718490D01*
X130718723Y-74667415D01*
X130720167Y-74662480D01*
X130721055Y-74659659D01*
X130736073Y-74611996D01*
X130736073Y-74611990D01*
X130737484Y-74603986D01*
X130737659Y-74604016D01*
X130740102Y-74588216D01*
X130754819Y-74533698D01*
X130760668Y-74518784D01*
X130760506Y-74518725D01*
X130763310Y-74511108D01*
X130763316Y-74511097D01*
X130774960Y-74459493D01*
X130776193Y-74454516D01*
X130789975Y-74403466D01*
X130789975Y-74403463D01*
X130791051Y-74395407D01*
X130791221Y-74395429D01*
X130793009Y-74379514D01*
X130805708Y-74323241D01*
X130810938Y-74308071D01*
X130810780Y-74308020D01*
X130813267Y-74300283D01*
X130819016Y-74268702D01*
X130822730Y-74248299D01*
X130823765Y-74243226D01*
X130825028Y-74237632D01*
X130835392Y-74191707D01*
X130835391Y-74191702D01*
X130836131Y-74183611D01*
X130836297Y-74183626D01*
X130837420Y-74167616D01*
X130847993Y-74109546D01*
X130852588Y-74094148D01*
X130852432Y-74094105D01*
X130854590Y-74086276D01*
X130854593Y-74086270D01*
X130861858Y-74033992D01*
X130862683Y-74028856D01*
X130872140Y-73976920D01*
X130872139Y-73976912D01*
X130872540Y-73968798D01*
X130872701Y-73968805D01*
X130873154Y-73952742D01*
X130880834Y-73897485D01*
X130883246Y-73885466D01*
X130890165Y-73831151D01*
X130891288Y-73822329D01*
X130891428Y-73821282D01*
X130900040Y-73759332D01*
X130900039Y-73759327D01*
X130900201Y-73758166D01*
X130901021Y-73745930D01*
X130902343Y-73735558D01*
X130902666Y-73733204D01*
X130903022Y-73730786D01*
X130914014Y-73655994D01*
X130914381Y-73653659D01*
X130920969Y-73614129D01*
X130927212Y-73576663D01*
X130927616Y-73574381D01*
X130941915Y-73497707D01*
X130942374Y-73495370D01*
X130958136Y-73419016D01*
X130958630Y-73416735D01*
X130962077Y-73401524D01*
X130975894Y-73340537D01*
X130976424Y-73338299D01*
X130995120Y-73262575D01*
X130995704Y-73260306D01*
X131000656Y-73241789D01*
X131016682Y-73181858D01*
X131016927Y-73180962D01*
X131889548Y-70039574D01*
X131889854Y-70038496D01*
X131915421Y-69949698D01*
X131935651Y-69879432D01*
X131936272Y-69877348D01*
X131984177Y-69722016D01*
X131984884Y-69719800D01*
X132026826Y-69592364D01*
X132035682Y-69565453D01*
X132036390Y-69563370D01*
X132090089Y-69409991D01*
X132090820Y-69407965D01*
X132147412Y-69255573D01*
X132148231Y-69253433D01*
X132185250Y-69159221D01*
X132207631Y-69102262D01*
X132208442Y-69100250D01*
X132270770Y-68950002D01*
X132271654Y-68947929D01*
X132293817Y-68897224D01*
X132337952Y-68796247D01*
X132338329Y-68795395D01*
X134491452Y-63992300D01*
X134492363Y-63990320D01*
X134631769Y-63694214D01*
X134633811Y-63690078D01*
X134781295Y-63404852D01*
X134783445Y-63400878D01*
X134941358Y-63121459D01*
X134943678Y-63117526D01*
X134987112Y-63046929D01*
X135111781Y-62844290D01*
X135114206Y-62840507D01*
X135292378Y-62573646D01*
X135294951Y-62569944D01*
X135482927Y-62309863D01*
X135485689Y-62306189D01*
X135486227Y-62305500D01*
X135683339Y-62053096D01*
X135686208Y-62049560D01*
X135897126Y-61799253D01*
X135898563Y-61797581D01*
X136208493Y-61443389D01*
X146649500Y-61443389D01*
X146649500Y-62416610D01*
X146675119Y-62578368D01*
X146676598Y-62587701D01*
X146730127Y-62752445D01*
X146808768Y-62906788D01*
X146910586Y-63046928D01*
X147033072Y-63169414D01*
X147173212Y-63271232D01*
X147327555Y-63349873D01*
X147492299Y-63403402D01*
X147663389Y-63430500D01*
X147663390Y-63430500D01*
X147836610Y-63430500D01*
X147836611Y-63430500D01*
X148007701Y-63403402D01*
X148172445Y-63349873D01*
X148326788Y-63271232D01*
X148466928Y-63169414D01*
X148589414Y-63046928D01*
X148691232Y-62906788D01*
X148769873Y-62752445D01*
X148823402Y-62587701D01*
X148850500Y-62416611D01*
X148850500Y-62408204D01*
X148870185Y-62341165D01*
X148922989Y-62295410D01*
X148992147Y-62285466D01*
X148998679Y-62286584D01*
X149002873Y-62287418D01*
X149004358Y-62287724D01*
X149087981Y-62305500D01*
X149087982Y-62305500D01*
X149272017Y-62305500D01*
X149272019Y-62305500D01*
X149355656Y-62287721D01*
X149357164Y-62287411D01*
X149435374Y-62271855D01*
X149435379Y-62271853D01*
X149441203Y-62270087D01*
X149441342Y-62270547D01*
X149451875Y-62267269D01*
X149452034Y-62267236D01*
X149524137Y-62235133D01*
X149527085Y-62233866D01*
X149594705Y-62205858D01*
X149595514Y-62205317D01*
X149613981Y-62195131D01*
X149620161Y-62192381D01*
X149678741Y-62149818D01*
X149682683Y-62147071D01*
X149738099Y-62110045D01*
X149743448Y-62104694D01*
X149758246Y-62092055D01*
X149769050Y-62084207D01*
X149813122Y-62035257D01*
X149817554Y-62030588D01*
X149860045Y-61988099D01*
X149867911Y-61976325D01*
X149878852Y-61962257D01*
X149892195Y-61947440D01*
X149921859Y-61896058D01*
X149926106Y-61889229D01*
X149955858Y-61844705D01*
X149963793Y-61825548D01*
X149970958Y-61811016D01*
X149984214Y-61788059D01*
X150000516Y-61737885D01*
X150003879Y-61728771D01*
X150021851Y-61685383D01*
X150021855Y-61685374D01*
X150027180Y-61658599D01*
X150030863Y-61644485D01*
X150041085Y-61613029D01*
X150045913Y-61567080D01*
X150047617Y-61555855D01*
X150048113Y-61553366D01*
X150050776Y-61539974D01*
X150055500Y-61516232D01*
X150055500Y-61482379D01*
X150056179Y-61469418D01*
X150057750Y-61454471D01*
X150060322Y-61430000D01*
X150060322Y-61429999D01*
X154099678Y-61429999D01*
X154103821Y-61469418D01*
X154104500Y-61482379D01*
X154104500Y-61516229D01*
X154112383Y-61555863D01*
X154114085Y-61567087D01*
X154118914Y-61613027D01*
X154129135Y-61644485D01*
X154132820Y-61658607D01*
X154138143Y-61685368D01*
X154138144Y-61685370D01*
X154138145Y-61685374D01*
X154156116Y-61728760D01*
X154159484Y-61737890D01*
X154175786Y-61788060D01*
X154175787Y-61788061D01*
X154189035Y-61811008D01*
X154196206Y-61825548D01*
X154204142Y-61844705D01*
X154204143Y-61844708D01*
X154233878Y-61889209D01*
X154238163Y-61896099D01*
X154267803Y-61947438D01*
X154267808Y-61947445D01*
X154281140Y-61962251D01*
X154292091Y-61976330D01*
X154299956Y-61988100D01*
X154299958Y-61988103D01*
X154342426Y-62030570D01*
X154346897Y-62035281D01*
X154390947Y-62084205D01*
X154401752Y-62092055D01*
X154416547Y-62104691D01*
X154421901Y-62110045D01*
X154477310Y-62147067D01*
X154481285Y-62149839D01*
X154539836Y-62192379D01*
X154539839Y-62192381D01*
X154546013Y-62195130D01*
X154564465Y-62205303D01*
X154565295Y-62205858D01*
X154565297Y-62205859D01*
X154565299Y-62205860D01*
X154608473Y-62223743D01*
X154632903Y-62233862D01*
X154635809Y-62235109D01*
X154707966Y-62267236D01*
X154708130Y-62267270D01*
X154718657Y-62270543D01*
X154718796Y-62270086D01*
X154724615Y-62271850D01*
X154724626Y-62271855D01*
X154756701Y-62278234D01*
X154802832Y-62287411D01*
X154804363Y-62287725D01*
X154887981Y-62305500D01*
X154887982Y-62305500D01*
X155072017Y-62305500D01*
X155072019Y-62305500D01*
X155155655Y-62287721D01*
X155157184Y-62287407D01*
X155161312Y-62286586D01*
X155230903Y-62292815D01*
X155286080Y-62335680D01*
X155309322Y-62401570D01*
X155309500Y-62408204D01*
X155309500Y-62416610D01*
X155335119Y-62578368D01*
X155336598Y-62587701D01*
X155390127Y-62752445D01*
X155468768Y-62906788D01*
X155570586Y-63046928D01*
X155693072Y-63169414D01*
X155833212Y-63271232D01*
X155987555Y-63349873D01*
X156152299Y-63403402D01*
X156323389Y-63430500D01*
X156323390Y-63430500D01*
X156496610Y-63430500D01*
X156496611Y-63430500D01*
X156667701Y-63403402D01*
X156832445Y-63349873D01*
X156986788Y-63271232D01*
X157126928Y-63169414D01*
X157249414Y-63046928D01*
X157351232Y-62906788D01*
X157429873Y-62752445D01*
X157483402Y-62587701D01*
X157510500Y-62416611D01*
X157510500Y-61443389D01*
X157483402Y-61272299D01*
X157429873Y-61107555D01*
X157351232Y-60953212D01*
X157249414Y-60813072D01*
X157126928Y-60690586D01*
X156986788Y-60588768D01*
X156955048Y-60572596D01*
X156832447Y-60510128D01*
X156832446Y-60510127D01*
X156832445Y-60510127D01*
X156667701Y-60456598D01*
X156667699Y-60456597D01*
X156667698Y-60456597D01*
X156536271Y-60435781D01*
X156496611Y-60429500D01*
X156323389Y-60429500D01*
X156283728Y-60435781D01*
X156152302Y-60456597D01*
X155987552Y-60510128D01*
X155833211Y-60588768D01*
X155693066Y-60690590D01*
X155693063Y-60690592D01*
X155667363Y-60716292D01*
X155606039Y-60749775D01*
X155536347Y-60744788D01*
X155510795Y-60731710D01*
X155482714Y-60712947D01*
X155478719Y-60710163D01*
X155420162Y-60667619D01*
X155413972Y-60664863D01*
X155395530Y-60654693D01*
X155394706Y-60654142D01*
X155327092Y-60626135D01*
X155324112Y-60624854D01*
X155252033Y-60592763D01*
X155251847Y-60592724D01*
X155241342Y-60589466D01*
X155241207Y-60589914D01*
X155235374Y-60588145D01*
X155157207Y-60572596D01*
X155155619Y-60572269D01*
X155072020Y-60554500D01*
X155072019Y-60554500D01*
X154887981Y-60554500D01*
X154804394Y-60572267D01*
X154802806Y-60572593D01*
X154724624Y-60588144D01*
X154718801Y-60589911D01*
X154718665Y-60589462D01*
X154708157Y-60592723D01*
X154708017Y-60592753D01*
X154707965Y-60592764D01*
X154635867Y-60624863D01*
X154632889Y-60626142D01*
X154565298Y-60654140D01*
X154565289Y-60654145D01*
X154564462Y-60654698D01*
X154546029Y-60664862D01*
X154539848Y-60667614D01*
X154539840Y-60667618D01*
X154481271Y-60710169D01*
X154477282Y-60712948D01*
X154421908Y-60749949D01*
X154421892Y-60749962D01*
X154416538Y-60755316D01*
X154401755Y-60767941D01*
X154390954Y-60775788D01*
X154346896Y-60824719D01*
X154342429Y-60829425D01*
X154299961Y-60871893D01*
X154299953Y-60871903D01*
X154292088Y-60883673D01*
X154281144Y-60897744D01*
X154267805Y-60912558D01*
X154245234Y-60951652D01*
X154239341Y-60961861D01*
X154238168Y-60963892D01*
X154233885Y-60970779D01*
X154204142Y-61015293D01*
X154196208Y-61034447D01*
X154189038Y-61048985D01*
X154175787Y-61071936D01*
X154159489Y-61122095D01*
X154156121Y-61131225D01*
X154138145Y-61174624D01*
X154132819Y-61201397D01*
X154129134Y-61215516D01*
X154118915Y-61246969D01*
X154118914Y-61246972D01*
X154114085Y-61292912D01*
X154112383Y-61304135D01*
X154104500Y-61343770D01*
X154104500Y-61377620D01*
X154103821Y-61390580D01*
X154099678Y-61429999D01*
X150060322Y-61429999D01*
X150056179Y-61390580D01*
X150055500Y-61377620D01*
X150055500Y-61343771D01*
X150050004Y-61316144D01*
X150047615Y-61304132D01*
X150045913Y-61292910D01*
X150041085Y-61246974D01*
X150041085Y-61246971D01*
X150030864Y-61215515D01*
X150027180Y-61201397D01*
X150021855Y-61174626D01*
X150003878Y-61131225D01*
X150000511Y-61122098D01*
X149984215Y-61071943D01*
X149970961Y-61048987D01*
X149963792Y-61034452D01*
X149955858Y-61015295D01*
X149926113Y-60970779D01*
X149921835Y-60963898D01*
X149896934Y-60920769D01*
X149892195Y-60912560D01*
X149878855Y-60897744D01*
X149867911Y-60883673D01*
X149860045Y-60871901D01*
X149860043Y-60871899D01*
X149860041Y-60871896D01*
X149817571Y-60829427D01*
X149813101Y-60824717D01*
X149769050Y-60775793D01*
X149769046Y-60775790D01*
X149758245Y-60767942D01*
X149743451Y-60755307D01*
X149738099Y-60749955D01*
X149714379Y-60734106D01*
X149682713Y-60712947D01*
X149678719Y-60710163D01*
X149620162Y-60667619D01*
X149613972Y-60664863D01*
X149595530Y-60654693D01*
X149594706Y-60654142D01*
X149527092Y-60626135D01*
X149524112Y-60624854D01*
X149452033Y-60592763D01*
X149451847Y-60592724D01*
X149441342Y-60589466D01*
X149441207Y-60589914D01*
X149435374Y-60588145D01*
X149357207Y-60572596D01*
X149355619Y-60572269D01*
X149272020Y-60554500D01*
X149272019Y-60554500D01*
X149087981Y-60554500D01*
X149004394Y-60572267D01*
X149002806Y-60572593D01*
X148924624Y-60588144D01*
X148918801Y-60589911D01*
X148918665Y-60589462D01*
X148908157Y-60592723D01*
X148908017Y-60592753D01*
X148907965Y-60592764D01*
X148835867Y-60624863D01*
X148832889Y-60626142D01*
X148765298Y-60654140D01*
X148765289Y-60654145D01*
X148764462Y-60654698D01*
X148746029Y-60664862D01*
X148739848Y-60667614D01*
X148739840Y-60667618D01*
X148681271Y-60710169D01*
X148677283Y-60712948D01*
X148649207Y-60731709D01*
X148582530Y-60752589D01*
X148515149Y-60734106D01*
X148492632Y-60716290D01*
X148466930Y-60690588D01*
X148466928Y-60690586D01*
X148326788Y-60588768D01*
X148295048Y-60572596D01*
X148172447Y-60510128D01*
X148172446Y-60510127D01*
X148172445Y-60510127D01*
X148007701Y-60456598D01*
X148007699Y-60456597D01*
X148007698Y-60456597D01*
X147876271Y-60435781D01*
X147836611Y-60429500D01*
X147663389Y-60429500D01*
X147623728Y-60435781D01*
X147492302Y-60456597D01*
X147327552Y-60510128D01*
X147173211Y-60588768D01*
X147105274Y-60638128D01*
X147033072Y-60690586D01*
X147033070Y-60690588D01*
X147033069Y-60690588D01*
X146910588Y-60813069D01*
X146910588Y-60813070D01*
X146910586Y-60813072D01*
X146897207Y-60831487D01*
X146808768Y-60953211D01*
X146730128Y-61107552D01*
X146730127Y-61107554D01*
X146730127Y-61107555D01*
X146719952Y-61138871D01*
X146676597Y-61272302D01*
X146649500Y-61443389D01*
X136208493Y-61443389D01*
X136808173Y-60758068D01*
X136809207Y-60756902D01*
X136977104Y-60570450D01*
X136979458Y-60567909D01*
X137149298Y-60389783D01*
X137151715Y-60387320D01*
X137326365Y-60214295D01*
X137328812Y-60211940D01*
X137508081Y-60044166D01*
X137510669Y-60041813D01*
X137590196Y-59971516D01*
X137694520Y-59879302D01*
X137697057Y-59877122D01*
X137885387Y-59719948D01*
X137888072Y-59717772D01*
X138080657Y-59566108D01*
X138083339Y-59564057D01*
X138280158Y-59417911D01*
X138282831Y-59415983D01*
X138483758Y-59275451D01*
X138486611Y-59273517D01*
X138691352Y-59138800D01*
X138694264Y-59136942D01*
X138902857Y-59008022D01*
X138905822Y-59006247D01*
X139118101Y-58883238D01*
X139121128Y-58881540D01*
X139337024Y-58764497D01*
X139340008Y-58762934D01*
X139559378Y-58651963D01*
X139562493Y-58650442D01*
X139785246Y-58545613D01*
X139788335Y-58544214D01*
X140018281Y-58443904D01*
X140019805Y-58443251D01*
X143494453Y-56986144D01*
X143495631Y-56985659D01*
X143698649Y-56903476D01*
X143701402Y-56902401D01*
X143902444Y-56826783D01*
X143905235Y-56825773D01*
X144107881Y-56755245D01*
X144110681Y-56754309D01*
X144314826Y-56688894D01*
X144317703Y-56688012D01*
X144523246Y-56627728D01*
X144526198Y-56626902D01*
X144733135Y-56571744D01*
X144736050Y-56571006D01*
X144944125Y-56521031D01*
X144947070Y-56520362D01*
X145156429Y-56475535D01*
X145159315Y-56474954D01*
X145369752Y-56435322D01*
X145372606Y-56434822D01*
X145583945Y-56400418D01*
X145586846Y-56399983D01*
X145798975Y-56370826D01*
X145802013Y-56370447D01*
X146014923Y-56346545D01*
X146017956Y-56346243D01*
X146231420Y-56327628D01*
X146234455Y-56327401D01*
X146448544Y-56314076D01*
X146451576Y-56313926D01*
X146666180Y-56305914D01*
X146669192Y-56305839D01*
X146887908Y-56303118D01*
X146889450Y-56303109D01*
X147074644Y-56303109D01*
X147141683Y-56322794D01*
G37*
%TD.AperFunction*%
%TD*%
M02*
