%TF.GenerationSoftware,KiCad,Pcbnew,8.0.4*%
%TF.CreationDate,2024-12-04T20:03:35-06:00*%
%TF.ProjectId,amoguspico,616d6f67-7573-4706-9963-6f2e6b696361,rev?*%
%TF.SameCoordinates,Original*%
%TF.FileFunction,Soldermask,Bot*%
%TF.FilePolarity,Negative*%
%FSLAX46Y46*%
G04 Gerber Fmt 4.6, Leading zero omitted, Abs format (unit mm)*
G04 Created by KiCad (PCBNEW 8.0.4) date 2024-12-04 20:03:35*
%MOMM*%
%LPD*%
G01*
G04 APERTURE LIST*
%ADD10C,1.800000*%
%ADD11R,1.600000X1.600000*%
%ADD12C,1.600000*%
%ADD13C,0.750000*%
%ADD14O,1.200000X2.000000*%
%ADD15O,1.200000X1.800000*%
G04 APERTURE END LIST*
D10*
%TO.C,BUZZER1*%
X134940000Y-74500000D03*
X142560000Y-74500000D03*
%TD*%
D11*
%TO.C,U7*%
X127180000Y-108520000D03*
D12*
X127180000Y-105980000D03*
X129720000Y-108520000D03*
X129720000Y-105980000D03*
X132260000Y-108520000D03*
X132260000Y-105980000D03*
X134800000Y-108520000D03*
X134800000Y-105980000D03*
X137340000Y-108520000D03*
X137340000Y-105980000D03*
X139880000Y-108520000D03*
X139880000Y-105980000D03*
X142420000Y-108520000D03*
X142420000Y-105980000D03*
X144960000Y-108520000D03*
X144960000Y-105980000D03*
X147500000Y-108520000D03*
X147500000Y-105980000D03*
X150040000Y-108520000D03*
X150040000Y-105980000D03*
X152580000Y-108520000D03*
X152580000Y-105980000D03*
X155120000Y-108520000D03*
X155120000Y-105980000D03*
X157660000Y-108520000D03*
X157660000Y-105980000D03*
X160200000Y-108520000D03*
X160200000Y-105980000D03*
X162740000Y-108520000D03*
X162740000Y-105980000D03*
X165280000Y-108520000D03*
X165280000Y-105980000D03*
X167820000Y-108520000D03*
X167820000Y-105980000D03*
X170360000Y-108520000D03*
X170360000Y-105980000D03*
X172900000Y-108520000D03*
X172900000Y-105980000D03*
X175440000Y-108520000D03*
X175440000Y-105980000D03*
%TD*%
D13*
%TO.C,USBC1*%
X154980000Y-61430000D03*
X149180000Y-61430000D03*
D14*
X156410000Y-61930000D03*
X147750000Y-61930000D03*
D15*
X147750000Y-57750000D03*
X156410000Y-57750000D03*
%TD*%
M02*
